<?xml version="1.0" encoding="utf-8"?>
<!-- Generator: Adobe Illustrator 16.0.0, SVG Export Plug-In . SVG Version: 6.00 Build 0)  -->
<!DOCTYPE svg PUBLIC "-//W3C//DTD SVG 1.1//EN" "http://www.w3.org/Graphics/SVG/1.1/DTD/svg11.dtd">
<svg version="1.1" xmlns="http://www.w3.org/2000/svg" xmlns:xlink="http://www.w3.org/1999/xlink" x="0px" y="0px" width="725px"
	 height="187px" viewBox="0 0 725 187" enable-background="new 0 0 725 187" xml:space="preserve">
<g id="Camada_2">
	<g>
		<g>
			<defs>
				<rect id="SVGID_1_" x="-121" y="-394" width="1000" height="1000"/>
			</defs>
			<clipPath id="SVGID_2_">
				<use xlink:href="#SVGID_1_"  overflow="visible"/>
			</clipPath>
			<path clip-path="url(#SVGID_2_)" fill="#FFFFFF" d="M365.086,62.128l-0.003-0.006L365.086,62.128z"/>
		</g>
		<g>
			<defs>
				<rect id="SVGID_3_" x="-121" y="-394" width="1000" height="1000"/>
			</defs>
			<clipPath id="SVGID_4_">
				<use xlink:href="#SVGID_3_"  overflow="visible"/>
			</clipPath>
			<polygon clip-path="url(#SVGID_4_)" fill="#D80000" points="390.503,29.035 427.502,29.035 427.502,34.435 341.503,169.033 
				302.904,169.033 302.904,163.634 			"/>
		</g>
		<g>
			<defs>
				<rect id="SVGID_5_" x="-121" y="-394" width="1000" height="1000"/>
			</defs>
			<clipPath id="SVGID_6_">
				<use xlink:href="#SVGID_5_"  overflow="visible"/>
			</clipPath>
			<polygon clip-path="url(#SVGID_6_)" fill="#353535" points="365.094,60.058 344.904,29.035 307.705,29.035 307.705,34.436 
				344.438,91.795 			"/>
		</g>
		<g>
			<defs>
				<rect id="SVGID_7_" x="-121" y="-394" width="1000" height="1000"/>
			</defs>
			<clipPath id="SVGID_8_">
				<use xlink:href="#SVGID_7_"  overflow="visible"/>
			</clipPath>
			<polygon clip-path="url(#SVGID_8_)" fill="none" stroke="#FFFFFF" stroke-miterlimit="10" points="365.094,60.058 
				344.904,29.035 307.705,29.035 307.705,34.436 344.438,91.795 			"/>
		</g>
		<g>
			<defs>
				<rect id="SVGID_9_" x="-121" y="-394" width="1000" height="1000"/>
			</defs>
			<clipPath id="SVGID_10_">
				<use xlink:href="#SVGID_9_"  overflow="visible"/>
			</clipPath>
			<polygon clip-path="url(#SVGID_10_)" fill="#353535" points="370.384,132.311 393.902,169.033 432.502,169.033 432.502,163.635 
				391.058,99.953 			"/>
		</g>
		<g>
			<defs>
				<rect id="SVGID_11_" x="-121" y="-394" width="1000" height="1000"/>
			</defs>
			<clipPath id="SVGID_12_">
				<use xlink:href="#SVGID_11_"  overflow="visible"/>
			</clipPath>
			<polygon clip-path="url(#SVGID_12_)" fill="none" stroke="#FFFFFF" stroke-miterlimit="10" points="370.384,132.311 
				393.902,169.033 432.502,169.033 432.502,163.635 391.058,99.953 			"/>
		</g>
	</g>
</g>
<g id="Camada_3">
	<g>
		<polygon fill="#353535" points="233.905,112.635 281.504,112.635 281.504,80.835 233.905,80.835 233.905,61.035 285.704,61.035 
			285.704,29.035 198.305,29.035 198.305,169.033 287.504,169.033 287.504,137.234 233.905,137.234 		"/>
		<polygon fill="none" stroke="#FFFFFF" stroke-miterlimit="10" points="233.905,112.635 281.504,112.635 281.504,80.835 
			233.905,80.835 233.905,61.035 285.704,61.035 285.704,29.035 198.305,29.035 198.305,169.033 287.504,169.033 287.504,137.234 
			233.905,137.234 		"/>
		<g>
			<defs>
				<rect id="SVGID_13_" x="-121" y="-394" width="1000" height="1000"/>
			</defs>
			<clipPath id="SVGID_14_">
				<use xlink:href="#SVGID_13_"  overflow="visible"/>
			</clipPath>
			<path clip-path="url(#SVGID_14_)" fill="#353535" d="M528.3,121.834c0,11.4-10.8,17-21.199,17s-21.398-5.6-21.398-17V29.035
				h-34.2v93.398c0,30.799,27,48.6,55.6,48.6c28.801,0,55.8-17.801,55.8-48.6V29.035h-34.601L528.3,121.834L528.3,121.834z"/>
		</g>
		<g>
			<defs>
				<rect id="SVGID_15_" x="-121" y="-394" width="1000" height="1000"/>
			</defs>
			<clipPath id="SVGID_16_">
				<use xlink:href="#SVGID_15_"  overflow="visible"/>
			</clipPath>
			<path clip-path="url(#SVGID_16_)" fill="none" stroke="#FFFFFF" stroke-miterlimit="10" d="M528.3,121.834
				c0,11.4-10.8,17-21.199,17s-21.398-5.6-21.398-17V29.035h-34.2v93.398c0,30.799,27,48.6,55.6,48.6
				c28.801,0,55.8-17.801,55.8-48.6V29.035h-34.601L528.3,121.834L528.3,121.834z"/>
		</g>
		<g>
			<defs>
				<rect id="SVGID_17_" x="-121" y="-394" width="1000" height="1000"/>
			</defs>
			<clipPath id="SVGID_18_">
				<use xlink:href="#SVGID_17_"  overflow="visible"/>
			</clipPath>
			<path clip-path="url(#SVGID_18_)" fill="#353535" d="M645.697,85.834c-12.601-1.4-23-3.6-22.2-14.2
				c1.2-16.599,38.8-18.199,38.8,0.4h33.999c0.801-60.399-107.998-60.399-106.798,0c0.399,30.399,20.399,40.799,50.799,43
				c14,0.8,25.601,2.399,25.601,12.2c0,16.398-43.8,16.8-43.8-1h-34.6c-0.8,61.6,113.198,59.998,113.198,1.199
				C700.696,92.435,673.497,88.834,645.697,85.834"/>
		</g>
		<g>
			<defs>
				<rect id="SVGID_19_" x="-121" y="-394" width="1000" height="1000"/>
			</defs>
			<clipPath id="SVGID_20_">
				<use xlink:href="#SVGID_19_"  overflow="visible"/>
			</clipPath>
			<path clip-path="url(#SVGID_20_)" fill="none" stroke="#FFFFFF" stroke-miterlimit="10" d="M645.697,85.834
				c-12.601-1.4-23-3.6-22.2-14.2c1.2-16.599,38.8-18.199,38.8,0.4h33.999c0.801-60.399-107.998-60.399-106.798,0
				c0.399,30.399,20.399,40.799,50.799,43c14,0.8,25.601,2.399,25.601,12.2c0,16.398-43.8,16.8-43.8-1h-34.6
				c-0.8,61.6,113.198,59.998,113.198,1.199C700.696,92.435,673.497,88.834,645.697,85.834z"/>
		</g>
	</g>
</g>
<g id="Camada_1">
	<g>
		<g>
			<defs>
				<rect id="SVGID_21_" x="-121" y="-394" width="1000" height="1000"/>
			</defs>
			<clipPath id="SVGID_22_">
				<use xlink:href="#SVGID_21_"  overflow="visible"/>
			</clipPath>
			<polygon clip-path="url(#SVGID_22_)" fill="#D80000" points="76.184,29.035 38.985,29.035 38.985,34.435 125.183,169.033 
				163.783,169.033 163.783,163.634 			"/>
		</g>
		<g>
			<defs>
				<rect id="SVGID_23_" x="-121" y="-394" width="1000" height="1000"/>
			</defs>
			<clipPath id="SVGID_24_">
				<use xlink:href="#SVGID_23_"  overflow="visible"/>
			</clipPath>
			<polygon clip-path="url(#SVGID_24_)" fill="#353535" points="38.985,42.35 38.985,169.033 76.187,169.033 76.187,100.441 			"/>
		</g>
		<g>
			<defs>
				<rect id="SVGID_25_" x="-121" y="-394" width="1000" height="1000"/>
			</defs>
			<clipPath id="SVGID_26_">
				<use xlink:href="#SVGID_25_"  overflow="visible"/>
			</clipPath>
			<polygon clip-path="url(#SVGID_26_)" fill="none" stroke="#FFFFFF" stroke-miterlimit="10" points="38.985,42.35 38.985,169.033 
				76.187,169.033 76.187,100.441 			"/>
		</g>
		<g>
			<defs>
				<rect id="SVGID_27_" x="-121" y="-394" width="1000" height="1000"/>
			</defs>
			<clipPath id="SVGID_28_">
				<use xlink:href="#SVGID_27_"  overflow="visible"/>
			</clipPath>
			<polygon clip-path="url(#SVGID_28_)" fill="#353535" points="163.781,155.98 163.781,29.036 125.149,29.036 125.149,96.622 			
				"/>
		</g>
		<g>
			<defs>
				<rect id="SVGID_29_" x="-121" y="-394" width="1000" height="1000"/>
			</defs>
			<clipPath id="SVGID_30_">
				<use xlink:href="#SVGID_29_"  overflow="visible"/>
			</clipPath>
			<polygon clip-path="url(#SVGID_30_)" fill="none" stroke="#FFFFFF" stroke-miterlimit="10" points="163.781,155.98 
				163.781,29.036 125.149,29.036 125.149,96.622 			"/>
		</g>
	</g>
</g>
</svg>
