<?xml version="1.0" standalone="no"?>
<!DOCTYPE svg PUBLIC "-//W3C//DTD SVG 1.1//EN" "http://www.w3.org/Graphics/SVG/1.1/DTD/svg11.dtd" >
<svg>
<metadata>
Created by FontForge 20090914 at Fri Feb 24 13:06:13 2012
 By root
Copyright (c) 2010 by Jonathan Hill. All rights reserved.
</metadata>
<defs>
<font id="Planer" horiz-adv-x="833" >
  <font-face 
    font-family="Planer"
    font-weight="400"
    font-stretch="normal"
    units-per-em="1000"
    panose-1="2 0 0 0 0 0 0 0 0 0"
    ascent="750"
    descent="-250"
    x-height="500"
    cap-height="700"
    bbox="50 -240 800 933"
    underline-thickness="50"
    underline-position="-50"
    unicode-range="U+0020-U+FB02"
  />
<missing-glyph horiz-adv-x="300" 
 />
    <glyph glyph-name=".notdef" horiz-adv-x="300" 
 />
    <glyph glyph-name="space" unicode=" " horiz-adv-x="300" 
 />
    <glyph glyph-name="exclam" unicode="!" horiz-adv-x="153" 
d="M50 219v447c0 16 10 26 26 26c15 0 27 -10 27 -26v-447c0 -15 -12 -27 -27 -27c-16 0 -26 12 -26 27zM50 27v43c0 16 10 26 26 26c15 0 27 -10 27 -26v-43c0 -15 -12 -27 -27 -27c-16 0 -26 12 -26 27z" />
    <glyph glyph-name="quotedbl" unicode="&#x22;" horiz-adv-x="289" 
d="M50 508v157c0 16 11 27 26 27s27 -11 27 -27v-157c0 -16 -12 -26 -27 -26s-26 10 -26 26zM186 508v157c0 16 10 27 26 27c15 0 27 -11 27 -27v-157c0 -16 -12 -26 -27 -26c-16 0 -26 10 -26 26z" />
    <glyph glyph-name="dollar" unicode="$" horiz-adv-x="528" 
d="M240 691v22c0 16 11 27 27 27c15 0 27 -11 27 -28v-20h140c16 0 28 -12 28 -26c0 -13 -12 -26 -26 -26h-142v-260c119 -23 184 -58 184 -174c0 -140 -60 -200 -184 -206v-19c0 -18 -12 -29 -27 -29c-16 0 -27 11 -27 27v21h-165c-13 0 -25 12 -25 26c0 13 12 26 25 26
h165v284c-110 22 -190 45 -190 182c0 121 69 169 190 173zM426 206c0 80 -42 102 -132 121v-275c86 7 132 51 132 154zM101 518c0 -93 52 -112 139 -129v250c-88 -4 -139 -38 -139 -121z" />
    <glyph glyph-name="percent" unicode="%" horiz-adv-x="620" 
d="M178 694c75 0 112 -39 112 -138s-38 -143 -112 -143c-75 0 -111 44 -111 144c0 98 35 137 111 137zM120 557c0 -60 13 -94 58 -94s59 33 59 93c0 58 -14 88 -59 88c-44 0 -58 -30 -58 -87zM448 281c75 0 112 -40 112 -139s-37 -142 -112 -142s-111 43 -111 143
c0 98 36 138 111 138zM390 143c0 -59 13 -93 58 -93c46 0 59 33 59 92s-13 89 -59 89c-44 0 -58 -30 -58 -88zM565 653l-466 -641c-4 -9 -12 -12 -22 -12c-5 0 -11 2 -15 4c-9 5 -12 12 -12 22c0 5 2 12 6 18l464 640c5 7 15 11 24 11c4 0 9 -1 15 -5c8 -5 11 -13 11 -22
c0 -6 -1 -10 -5 -15z" />
    <glyph glyph-name="ampersand" unicode="&#x26;" horiz-adv-x="593" 
d="M465 178c0 13 12 26 26 26c13 0 25 -13 25 -26c0 -33 -7 -64 -19 -88l41 -48c3 -5 5 -10 5 -16c0 -14 -12 -26 -26 -26c-7 0 -15 4 -20 10l-31 36c-29 -30 -72 -46 -118 -46h-130c-96 0 -168 71 -168 179c0 103 59 180 148 187c-2 3 -7 7 -8 10c-24 27 -36 66 -36 110
c0 101 71 177 168 177h26c97 0 168 -76 168 -178c0 -100 -69 -170 -162 -170h-46l152 -179c4 12 5 26 5 42zM102 179c0 -77 51 -127 116 -127h130c34 0 63 12 84 35l-191 228h-23c-66 0 -116 -58 -116 -136zM266 367h88c62 0 111 48 111 118c0 72 -50 127 -117 127h-26
c-66 0 -116 -55 -116 -126c0 -30 8 -57 24 -76z" />
    <glyph glyph-name="quotesingle" unicode="'" horiz-adv-x="153" 
d="M50 508v157c0 16 10 27 26 27c15 0 27 -11 27 -27v-157c0 -16 -12 -26 -27 -26c-16 0 -26 10 -26 26z" />
    <glyph glyph-name="parenleft" unicode="(" horiz-adv-x="240" 
d="M188 -82c1 -2 2 -7 2 -8c0 -15 -11 -25 -25 -25c-11 0 -19 6 -23 16c0 0 -92 253 -92 398c0 144 91 388 91 387c4 9 12 16 23 16c14 0 25 -11 25 -25c0 -3 0 -5 -2 -8c0 0 -82 -227 -82 -370c0 -145 83 -381 83 -381z" />
    <glyph glyph-name="parenright" unicode=")" horiz-adv-x="240" 
d="M52 -82c0 0 82 236 82 381c0 143 -81 370 -81 369c-2 4 -2 6 -2 9c0 14 10 25 25 25c9 0 19 -7 23 -15c0 0 91 -244 91 -388c0 -145 -92 -398 -92 -398c-4 -10 -14 -16 -23 -16c-15 0 -25 10 -25 25c0 3 1 5 2 8z" />
    <glyph glyph-name="plus" unicode="+" horiz-adv-x="587" 
d="M319 225v-191c-2 -15 -11 -26 -27 -26c-13 0 -26 11 -26 27v190h-190c-14 2 -26 12 -26 27c0 13 12 26 27 26h189v191c2 15 14 25 28 25c15 0 25 -9 25 -24v-192h192c15 0 26 -12 26 -27s-11 -26 -26 -26h-192z" />
    <glyph glyph-name="comma" unicode="," horiz-adv-x="193" 
d="M65 -15c9 3 24 12 24 28v69c0 14 11 28 27 28c14 0 27 -14 27 -28v-69c0 -35 -27 -64 -60 -73c-6 -2 -8 -2 -10 -2c-13 0 -23 10 -23 24c0 10 7 20 15 23z" />
    <glyph glyph-name="hyphen" unicode="-" horiz-adv-x="426" 
d="M350 235h-274c-14 2 -26 11 -26 27c0 13 12 25 27 25h273c16 0 26 -11 26 -26c0 -16 -10 -26 -26 -26z" />
    <glyph glyph-name="period" unicode="." horiz-adv-x="157" 
d="M50 29v38c0 16 12 29 29 29c15 0 28 -13 28 -29v-36c0 -19 -13 -31 -28 -31c-17 0 -29 12 -29 29z" />
    <glyph glyph-name="slash" unicode="/" horiz-adv-x="437" 
d="M384 655l-283 -639c-5 -7 -15 -16 -24 -16c-3 0 -8 1 -11 3c-11 4 -16 12 -16 25c0 4 2 9 3 15l282 632c6 12 15 18 25 18c3 0 8 -2 11 -3c10 -3 16 -13 16 -24c0 -4 -2 -8 -3 -11z" />
    <glyph glyph-name="zero" unicode="0" horiz-adv-x="570" 
d="M285 663c148 0 235 -82 235 -251v-182c0 -161 -92 -239 -235 -239c-142 0 -235 80 -235 239v182c0 174 92 251 235 251zM285 612c-117 0 -181 -66 -181 -200v-182c0 -123 72 -187 181 -187c110 0 181 64 181 187v182c0 130 -63 200 -181 200z" />
    <glyph glyph-name="two" unicode="2" horiz-adv-x="530" 
d="M60 58l244 229c51 48 96 97 96 174v29c0 79 -72 122 -148 122h-169c-13 0 -26 12 -26 25c0 14 13 26 26 26h170c112 0 198 -61 198 -173v-28c0 -97 -47 -153 -107 -210l-214 -200h322c17 0 28 -13 28 -26c0 -14 -12 -26 -26 -26h-371c-17 0 -33 16 -33 34c0 9 3 17 10 24
z" />
    <glyph glyph-name="three" unicode="3" horiz-adv-x="501" 
d="M129 341c0 14 13 26 26 26h134c62 0 110 48 110 118c0 72 -50 127 -116 127h-205c-16 0 -28 12 -28 25c0 14 13 26 26 26h207c97 0 168 -76 168 -178c0 -67 -27 -117 -77 -145c49 -32 77 -91 77 -162c0 -107 -73 -178 -168 -178h-207c-13 0 -26 12 -26 26
c0 13 13 26 26 26h207c65 0 116 50 116 126c0 79 -50 137 -116 137h-126c-16 0 -28 13 -28 26z" />
    <glyph glyph-name="four" unicode="4" horiz-adv-x="570" 
d="M360 134h-240c-39 0 -70 30 -70 70c0 10 3 20 7 30l166 413c4 9 14 16 25 16c15 0 27 -11 27 -26c0 -2 -1 -7 -2 -10l-169 -415c-1 -2 -2 -4 -2 -8c0 -10 8 -17 18 -17h240v147c0 17 12 28 27 28c16 0 27 -11 27 -26v-149h79c16 0 27 -11 27 -26c0 -16 -11 -27 -27 -27
h-79v-105c0 -17 -11 -29 -27 -29c-15 0 -27 12 -27 27v107z" />
    <glyph glyph-name="five" unicode="5" horiz-adv-x="508" 
d="M50 26c0 15 11 27 26 27h166c85 0 163 32 163 123v69c0 77 -67 113 -148 113h-164c-25 0 -43 17 -43 42v211c0 25 18 44 43 44h318c15 0 27 -12 27 -27c0 -16 -12 -26 -27 -26h-308v-193h155c112 0 200 -52 200 -164v-69c0 -127 -95 -176 -215 -176h-167
c-15 0 -26 11 -26 26z" />
    <glyph glyph-name="six" unicode="6" horiz-adv-x="536" 
d="M105 424v-12h171c138 0 210 -57 210 -175v-42c0 -115 -71 -195 -216 -195c-146 0 -220 66 -220 229v195c0 164 89 239 241 239h145c16 0 28 -12 28 -26c0 -13 -12 -25 -26 -25h-147c-117 0 -186 -61 -186 -188zM274 360h-169v-129c0 -135 54 -179 165 -179
c112 0 160 57 160 143v42c0 80 -52 123 -156 123z" />
    <glyph glyph-name="seven" unicode="7" horiz-adv-x="507" 
d="M159 37l245 557c0 1 1 3 1 5c0 7 -6 13 -12 13h-315c-16 0 -28 12 -28 25c0 14 13 26 26 26h317c34 0 64 -29 64 -64c0 -8 -1 -15 -5 -24l-245 -560c-5 -9 -13 -15 -24 -15c-13 0 -26 12 -26 26c0 3 1 7 2 11z" />
    <glyph glyph-name="eight" unicode="8" horiz-adv-x="566" 
d="M348 0h-130c-95 0 -168 71 -168 179c0 72 28 130 77 161c-49 28 -77 78 -77 146c0 101 71 177 168 177h130c97 0 168 -76 168 -178c0 -67 -27 -117 -77 -145c49 -32 77 -91 77 -162c0 -107 -73 -178 -168 -178zM218 52h130c65 0 116 50 116 126c0 79 -50 137 -116 137
h-130c-66 0 -116 -58 -116 -136c0 -77 51 -127 116 -127zM213 367h141c62 0 110 48 110 118c0 72 -50 127 -116 127h-130c-66 0 -116 -55 -116 -126c0 -70 48 -117 111 -119z" />
    <glyph glyph-name="colon" unicode=":" horiz-adv-x="157" 
d="M50 29v38c0 16 12 29 29 29c15 0 28 -13 28 -29v-36c0 -19 -13 -31 -28 -31c-17 0 -29 12 -29 29zM50 360v38c0 15 12 29 29 29c15 0 28 -14 28 -29v-36c0 -19 -13 -31 -28 -31c-17 0 -29 12 -29 29z" />
    <glyph glyph-name="semicolon" unicode=";" horiz-adv-x="195" 
d="M88 360v38c0 15 12 29 29 29c15 0 28 -14 28 -29v-36c0 -19 -13 -31 -28 -31c-17 0 -29 12 -29 29zM65 -15c9 3 24 12 24 28v69c0 14 11 28 27 28c14 0 27 -14 27 -28v-69c0 -35 -26 -64 -60 -73c-6 -2 -8 -2 -10 -2c-13 0 -23 10 -23 24c0 10 7 20 15 23z" />
    <glyph glyph-name="less" unicode="&#x3c;" horiz-adv-x="457" 
d="M67 275c-11 8 -17 20 -17 35c0 14 7 27 18 35l303 196c2 1 5 2 10 2c15 0 26 -10 26 -26c0 -7 -3 -13 -11 -19l-286 -186l284 -197c8 -4 13 -13 13 -23c0 -14 -11 -24 -26 -24c-6 0 -10 1 -15 5c0 0 -266 178 -299 202z" />
    <glyph glyph-name="equal" unicode="=" horiz-adv-x="587" 
d="M511 329h-435c-14 2 -26 11 -26 27c0 13 12 26 27 26h434c15 0 26 -12 26 -27c0 -16 -11 -26 -26 -26zM511 167h-435c-14 2 -26 12 -26 27c0 14 12 26 27 26h434c15 0 26 -11 26 -27c0 -15 -11 -26 -26 -26z" />
    <glyph glyph-name="greater" unicode="&#x3e;" horiz-adv-x="457" 
d="M389 275c-33 -25 -299 -202 -300 -202c-5 -3 -7 -5 -13 -5c-16 0 -26 10 -26 24c0 10 5 19 11 22l285 198l-287 186c-6 5 -9 12 -9 19c0 16 10 26 26 26c4 0 7 -1 9 -2l302 -196c12 -8 20 -21 20 -35c0 -15 -6 -27 -18 -35z" />
    <glyph glyph-name="question" unicode="?" horiz-adv-x="456" 
d="M171 218v24c0 55 24 79 60 112l62 58c38 35 57 73 57 110c0 77 -46 118 -138 118h-134c-18 0 -28 11 -28 26c0 14 10 26 26 26h136c121 0 194 -57 194 -170c0 -60 -26 -103 -76 -148l-63 -56c-26 -24 -43 -49 -43 -76v-22c0 -17 -12 -28 -27 -28s-26 11 -26 26zM169 28
v41c0 15 13 28 29 28c14 0 28 -13 28 -28v-39c0 -18 -14 -30 -28 -30c-16 0 -29 13 -29 28z" />
    <glyph glyph-name="A" unicode="A" horiz-adv-x="628" 
d="M450 262l-110 363c-5 10 -16 20 -26 20s-21 -11 -26 -20l-110 -363h272zM393 642l184 -610c0 -1 1 -5 1 -6c0 -13 -12 -26 -27 -26c-10 0 -21 10 -25 18l-61 191h-304l-58 -191c-4 -9 -15 -18 -27 -18c-13 0 -26 13 -26 26c0 3 0 6 1 9l184 607c10 34 42 58 79 58
c38 0 69 -24 79 -58z" />
    <glyph glyph-name="bracketleft" unicode="[" horiz-adv-x="294" 
d="M50 -78v778c0 23 17 40 41 40h126c17 0 27 -10 27 -25c0 -14 -10 -25 -25 -25h-116v-758h114c17 0 27 -11 27 -25c0 -15 -10 -25 -25 -25h-128c-24 0 -41 17 -41 40z" />
    <glyph glyph-name="backslash" unicode="\" horiz-adv-x="437" 
d="M336 16l-284 639c0 3 -2 7 -2 11c0 11 5 21 16 24c3 1 8 3 11 3c9 0 19 -6 25 -18l281 -632c2 -6 4 -11 4 -15c0 -13 -6 -21 -16 -25c-3 -2 -8 -3 -11 -3c-9 0 -19 9 -24 16z" />
    <glyph glyph-name="bracketright" unicode="]" horiz-adv-x="294" 
d="M244 700v-778c0 -23 -17 -40 -40 -40h-129c-14 0 -25 10 -25 25c0 14 11 25 27 25h115v758h-117c-14 0 -25 11 -25 25c0 15 11 25 27 25h127c23 0 40 -17 40 -40z" />
    <glyph glyph-name="underscore" unicode="_" horiz-adv-x="530" 
d="M454 -66h-379c-14 2 -25 11 -25 27c0 13 11 26 26 26h378c16 0 26 -12 26 -27c0 -16 -10 -26 -26 -26z" />
    <glyph glyph-name="a" unicode="a" horiz-adv-x="471" 
d="M79 484c0 14 10 25 25 25h181c80 0 136 -62 136 -146v-323c0 -23 -17 -40 -40 -40h-187c-80 0 -144 63 -144 143c0 79 64 144 144 144h174v73c0 55 -31 99 -83 99h-179c-17 0 -27 10 -27 25zM194 52h174v184h-174c-51 0 -92 -42 -92 -93c0 -50 41 -91 92 -91z" />
    <glyph glyph-name="b" unicode="b" horiz-adv-x="476" 
d="M50 42v623c0 16 12 27 26 27c15 0 27 -11 27 -27v-156h166c84 0 157 -61 157 -167v-154c0 -73 -42 -188 -159 -188h-175c-22 0 -42 20 -42 42zM103 459v-406h164c61 0 106 56 106 138v151c0 70 -48 117 -104 117h-166z" />
    <glyph glyph-name="c" unicode="c" horiz-adv-x="433" 
d="M245 509h113c15 0 25 -11 25 -25c0 -15 -10 -25 -25 -25h-113c-100 0 -143 -56 -143 -154v-95c0 -103 48 -160 143 -160h113c15 0 25 -11 25 -25s-10 -25 -25 -25h-113c-131 0 -195 67 -195 211v94c0 134 63 204 195 204z" />
    <glyph glyph-name="d" unicode="d" horiz-adv-x="476" 
d="M426 665v-623c0 -22 -20 -42 -42 -42h-175c-117 0 -159 115 -159 188v154c0 106 73 167 157 167h166v156c0 16 12 27 27 27c13 0 26 -11 26 -27zM373 53v406h-166c-56 0 -104 -47 -104 -117v-151c0 -82 45 -138 106 -138h164z" />
    <glyph glyph-name="e" unicode="e" horiz-adv-x="480" 
d="M389 228h-286c2 -116 32 -178 132 -178h153c16 0 26 -11 26 -25s-10 -25 -25 -25h-155c-145 0 -184 78 -184 237v78c0 124 82 194 188 194c124 0 192 -67 192 -194v-47c0 -23 -17 -40 -41 -40zM103 278h274v37c0 94 -46 144 -139 144c-85 0 -135 -57 -135 -144v-37z" />
    <glyph glyph-name="f" unicode="f" horiz-adv-x="375" 
d="M50 475c0 14 11 25 25 25h43c11 113 69 171 176 190c19 0 30 -10 30 -25c0 -13 -9 -22 -20 -24c-78 -13 -119 -60 -132 -141h128c14 0 25 -11 25 -25s-11 -25 -25 -25h-130v-423c0 -16 -14 -27 -28 -27s-25 11 -25 25v425h-42c-14 0 -25 11 -25 25z" />
    <glyph glyph-name="g" unicode="g" horiz-adv-x="476" 
d="M209 509h177c23 0 40 -18 40 -41v-466c0 -154 -41 -230 -184 -230h-154c-16 0 -26 11 -26 25c0 15 10 25 25 25h154c100 0 130 62 132 178h-166c-84 0 -157 61 -157 166v154c0 73 42 189 159 189zM373 50v406h-164c-61 0 -106 -56 -106 -139v-151c0 -69 48 -116 104 -116
h166z" />
    <glyph glyph-name="h" unicode="h" horiz-adv-x="478" 
d="M50 26v639c0 16 11 27 26 27s27 -11 27 -27v-156h168c84 0 157 -61 157 -167v-316c0 -15 -12 -26 -27 -26s-26 11 -26 26v314c0 72 -48 119 -104 119h-168v-433c0 -15 -12 -26 -27 -26s-26 11 -26 26z" />
    <glyph glyph-name="i" unicode="i" horiz-adv-x="153" 
d="M50 26v447c0 15 10 27 26 27c15 0 27 -12 27 -27v-447c0 -15 -12 -26 -27 -26c-16 0 -26 11 -26 26zM50 646v19c0 16 10 27 26 27c15 0 27 -11 27 -27v-19c0 -15 -12 -26 -27 -26c-16 0 -26 11 -26 26z" />
    <glyph glyph-name="j" unicode="j" horiz-adv-x="251" 
d="M148 60v413c0 15 10 27 26 27c15 0 27 -12 27 -27v-414c0 -58 -10 -104 -46 -156l-56 -81c-5 -9 -15 -11 -23 -11c-16 0 -26 10 -26 26c0 6 2 11 5 17l54 77c30 43 39 83 39 129zM148 646v19c0 16 10 27 26 27c15 0 27 -11 27 -27v-19c0 -15 -12 -26 -27 -26
c-16 0 -26 11 -26 26z" />
    <glyph glyph-name="m" unicode="m" horiz-adv-x="755" 
d="M351 459h-248v-430c0 -17 -12 -29 -27 -29c-16 0 -26 13 -26 27v439c0 22 17 43 42 43h456c83 0 157 -61 157 -167v-315c0 -14 -12 -27 -27 -27c-16 0 -26 13 -26 27v315c0 70 -48 117 -104 117h-144v-430c0 -17 -12 -29 -27 -29c-16 0 -26 13 -26 27v432z" />
    <glyph glyph-name="n" unicode="n" horiz-adv-x="478" 
d="M375 27v315c0 70 -48 117 -104 117h-168v-430c0 -17 -12 -29 -27 -29s-26 13 -26 27v439c0 22 17 43 42 43h179c84 0 157 -61 157 -167v-315c0 -14 -12 -27 -27 -27s-26 13 -26 27z" />
    <glyph glyph-name="o" unicode="o" horiz-adv-x="494" 
d="M278 -6h-61c-95 0 -167 70 -167 176v152c0 106 70 186 167 186h61c96 0 166 -80 166 -186v-152c0 -106 -72 -176 -166 -176zM217 44h61c64 0 114 57 114 126v152c0 70 -50 136 -114 136h-61c-65 0 -114 -66 -114 -136v-152c0 -69 49 -126 114 -126z" />
    <glyph glyph-name="p" unicode="p" horiz-adv-x="476" 
d="M50 -157v623c0 22 20 43 42 43h175c117 0 159 -116 159 -189v-154c0 -105 -73 -166 -157 -166h-166v-157c0 -15 -12 -27 -27 -27c-14 0 -26 12 -26 27zM103 456v-406h166c56 0 104 47 104 116v151c0 83 -45 139 -106 139h-164z" />
    <glyph glyph-name="q" unicode="q" horiz-adv-x="476" 
d="M426 466v-623c0 -15 -13 -27 -26 -27c-15 0 -27 12 -27 27v157h-166c-84 0 -157 61 -157 166v154c0 73 42 189 159 189h175c22 0 42 -21 42 -43zM373 50v406h-164c-61 0 -106 -56 -106 -139v-151c0 -69 48 -116 104 -116h166z" />
    <glyph glyph-name="r" unicode="r" horiz-adv-x="353" 
d="M50 26v456c0 15 10 27 26 27c15 0 27 -12 27 -27v-20c32 32 78 47 142 47h31c16 0 27 -11 27 -25c0 -15 -11 -25 -25 -25h-33c-97 0 -142 -56 -142 -147v-286c0 -15 -12 -26 -27 -26c-16 0 -26 11 -26 26z" />
    <glyph glyph-name="s" unicode="s" horiz-adv-x="469" 
d="M65 25c0 14 11 25 25 25h141c81 0 133 23 133 94c0 48 -39 78 -108 87l-43 5c-102 11 -163 43 -163 134c0 99 79 138 170 138h153c16 0 27 -11 27 -25c0 -15 -11 -25 -25 -25h-155c-65 0 -115 -24 -115 -86c0 -56 37 -75 122 -85l38 -5c95 -13 154 -54 154 -137
c0 -111 -77 -145 -188 -145h-141c-14 0 -25 11 -25 25z" />
    <glyph glyph-name="t" unicode="t" horiz-adv-x="393" 
d="M129 501v82c0 15 11 27 26 27s27 -12 27 -27v-82h133c17 0 28 -12 28 -27s-11 -26 -27 -26h-134v-282c0 -74 24 -113 97 -113h37c16 0 27 -12 27 -27s-11 -26 -27 -26h-37c-109 0 -150 58 -150 166v282h-53c-15 0 -26 11 -26 26s11 27 26 27h53z" />
    <glyph glyph-name="v" unicode="v" horiz-adv-x="490" 
d="M439 464l-122 -412c-9 -30 -38 -52 -73 -52c-33 0 -63 22 -72 52l-118 407c-1 3 -4 11 -4 14c0 15 11 27 26 27c13 0 23 -8 26 -19l121 -413c3 -9 12 -16 21 -16c11 0 20 6 22 15l122 415c3 9 13 18 25 18c15 0 27 -12 27 -27c0 -3 0 -6 -1 -9z" />
    <glyph glyph-name="w" unicode="w" horiz-adv-x="778" 
d="M419 466l111 -397c3 -10 11 -17 22 -17c12 0 21 7 24 16l101 412c4 11 13 19 25 19c13 0 26 -12 26 -26c0 -1 -1 -4 -1 -7l-100 -410c-8 -33 -39 -56 -75 -56s-64 23 -73 55l-92 336l-90 -336c-9 -32 -38 -55 -75 -55c-35 0 -65 24 -73 56l-98 409c-1 3 -1 6 -1 9
c0 13 11 26 26 26c12 0 22 -10 25 -20l99 -411c3 -10 12 -17 22 -17c13 0 21 7 24 17l110 397c4 14 16 22 31 22c16 0 28 -8 32 -22z" />
    <glyph glyph-name="x" unicode="x" horiz-adv-x="456" 
d="M259 250l142 -210c3 -4 5 -9 5 -15c0 -14 -11 -25 -26 -25c-10 0 -16 5 -21 11l-131 195l-132 -195c-5 -6 -13 -11 -21 -11c-15 0 -25 11 -25 25c0 6 2 12 5 16l141 209l-141 210c-4 4 -5 9 -5 14c0 15 10 26 25 26c8 0 16 -5 21 -11l132 -195l131 195c5 6 13 11 21 11
c15 0 26 -11 26 -26c0 -5 -1 -10 -5 -14z" />
    <glyph glyph-name="y" unicode="y" horiz-adv-x="483" 
d="M247 56l136 426c4 9 13 18 24 18c15 0 26 -11 26 -26c0 -2 0 -4 -1 -7l-212 -671c-3 -9 -11 -17 -24 -17c-14 0 -25 10 -25 25c0 3 0 6 1 8l59 189c-21 3 -41 19 -47 39l-133 428c0 1 -1 5 -1 6c0 15 11 26 25 26c12 0 21 -8 25 -17l133 -426c1 -3 4 -5 6 -5c5 0 8 2 8 4
z" />
    <glyph glyph-name="z" unicode="z" horiz-adv-x="456" 
d="M384 427l-277 -376h271c17 0 28 -11 28 -26c0 -14 -11 -25 -26 -25h-285c-26 0 -45 19 -45 45c0 11 5 22 9 29l279 375h-257c-15 0 -25 11 -25 25c0 15 10 26 25 26h266c26 0 46 -20 46 -46c0 -10 -2 -19 -9 -27z" />
    <glyph glyph-name="braceleft" unicode="{" horiz-adv-x="431" 
d="M240 168v-236h114c17 0 27 -11 27 -25c0 -15 -10 -25 -25 -25h-129c-23 0 -40 17 -40 40v246c0 69 -48 118 -112 118c-13 0 -25 12 -25 26c0 13 11 25 26 25c63 0 111 49 111 118v245c0 23 17 40 40 40h127c17 0 27 -10 27 -25c0 -14 -10 -25 -25 -25h-116v-235
c0 -64 -31 -116 -76 -143c45 -29 76 -80 76 -144z" />
    <glyph glyph-name="registered" unicode="&#xae;" horiz-adv-x="611" 
d="M50 427c0 147 108 265 255 265s256 -118 256 -265s-109 -265 -256 -265s-255 118 -255 265zM100 427c0 -118 87 -215 205 -215s206 97 206 215s-88 215 -206 215s-205 -97 -205 -215zM365 279l-57 112h-61v-101c0 -14 -10 -25 -25 -25c-14 0 -25 11 -25 25v257
c0 23 18 40 41 40h57c88 0 120 -25 120 -96c0 -44 -17 -79 -53 -94c15 -33 32 -63 47 -96c1 -3 3 -7 3 -11c0 -14 -11 -25 -25 -25c-10 0 -17 6 -22 14zM247 441h68c35 0 50 12 50 50c0 36 -22 46 -68 46h-50v-96z" />
    <glyph glyph-name="OE" unicode="&#x152;" horiz-adv-x="775" 
d="M50 236v222c0 175 90 242 236 242h410c17 0 29 -12 29 -27c0 -16 -12 -27 -27 -27h-336v-255h275c18 0 30 -12 30 -27c0 -16 -12 -28 -28 -28h-277v-282h334c17 0 29 -11 29 -27c0 -15 -12 -27 -27 -27h-412c-151 0 -236 95 -236 236zM308 53v593h-22
c-112 0 -180 -53 -180 -188v-222c0 -106 63 -183 180 -183h22z" />
    <glyph glyph-name="endash" unicode="&#x2013;" horiz-adv-x="507" 
d="M431 244h-355c-14 2 -26 12 -26 27c0 14 12 26 27 26h354c15 0 26 -11 26 -27c0 -15 -11 -26 -26 -26z" />
    <glyph glyph-name="daggerdbl" unicode="&#x2021;" horiz-adv-x="509" 
d="M228 202h-151c-15 0 -27 11 -27 27c0 15 12 27 29 27h149v201h-151c-15 0 -27 11 -27 27c0 15 12 27 29 27h149v154c0 16 12 27 27 27s27 -11 27 -29v-152h148c17 0 29 -12 29 -27c0 -16 -12 -27 -27 -27h-150v-201h148c17 0 29 -12 29 -27c0 -16 -12 -27 -27 -27h-150
v-173c0 -17 -12 -29 -27 -29s-27 12 -27 27v175z" />
    <glyph glyph-name="macron" unicode="&#xaf;" 
 />
    <glyph glyph-name="l" unicode="l" horiz-adv-x="154" 
d="M50 27v638c0 16 11 27 27 27c15 0 27 -11 27 -29v-634c0 -17 -12 -29 -27 -29c-16 0 -27 12 -27 27z" />
    <glyph glyph-name="u" unicode="u" horiz-adv-x="478" 
d="M103 482v-316c0 -69 48 -116 104 -116h168v430c0 15 12 29 27 29s26 -14 26 -27v-440c0 -22 -17 -42 -42 -42h-179c-84 0 -157 61 -157 166v316c0 13 12 27 27 27s26 -14 26 -27z" />
    <glyph glyph-name="k" unicode="k" horiz-adv-x="457" 
d="M231 273l171 -229c4 -5 5 -11 5 -17c0 -15 -11 -27 -26 -27c-9 0 -17 5 -22 11l-170 232c-2 1 -6 4 -7 4h-78v-218c0 -17 -12 -29 -27 -29c-16 0 -27 12 -27 27v638c0 16 11 27 27 27c15 0 27 -11 27 -27v-366h77c3 0 4 1 5 2l156 188c5 6 13 11 21 11
c16 0 27 -12 27 -27c0 -6 -1 -11 -5 -15z" />
    <glyph glyph-name="zcaron" unicode="&#x17e;" horiz-adv-x="456" 
d="M384 427l-277 -376h271c17 0 28 -11 28 -26c0 -14 -11 -25 -26 -25h-285c-26 0 -45 19 -45 45c0 11 5 22 9 29l279 375h-257c-15 0 -25 11 -25 25c0 15 10 26 25 26h266c26 0 46 -20 46 -46c0 -10 -2 -19 -9 -27zM335 653l-79 -86c-9 -10 -22 -18 -35 -18
c-15 0 -30 8 -39 19c-5 6 -75 85 -75 85c-4 4 -6 10 -6 15c0 14 10 25 25 25c6 0 12 -3 17 -8l78 -89l76 87c5 6 12 10 20 10c13 0 24 -11 24 -25c0 -7 -3 -11 -6 -15z" />
    <glyph glyph-name="B" unicode="B" horiz-adv-x="580" 
d="M530 193c0 -107 -86 -193 -194 -193h-241c-26 0 -45 19 -45 45v610c0 26 19 45 45 45h225c101 0 183 -82 183 -183c0 -65 -29 -117 -80 -150c63 -33 107 -98 107 -174zM336 335h-232v-283h232c77 0 142 64 142 141c0 78 -65 142 -142 142zM104 388h216
c72 0 130 58 130 129c0 72 -58 130 -130 130h-216v-259z" />
    <glyph glyph-name="C" unicode="C" horiz-adv-x="533" 
d="M50 236v222c0 175 89 242 235 242h172c14 0 26 -13 26 -26c0 -14 -12 -27 -26 -27h-172c-112 0 -180 -54 -180 -189v-222c0 -106 63 -184 180 -184h170c16 0 28 -12 28 -26c0 -13 -12 -26 -26 -26h-172c-151 0 -235 95 -235 236z" />
    <glyph glyph-name="D" unicode="D" horiz-adv-x="574" 
d="M469 236v222c0 135 -68 189 -180 189h-185v-595h185c117 0 180 78 180 184zM50 45v610c0 26 19 45 45 45h194c146 0 235 -67 235 -242v-222c0 -141 -84 -236 -235 -236h-194c-26 0 -45 19 -45 45z" />
    <glyph glyph-name="E" unicode="E" horiz-adv-x="517" 
d="M50 45v610c0 26 20 45 45 45h343c18 0 29 -12 29 -27c0 -16 -11 -27 -27 -27h-335v-255h275c17 0 29 -12 29 -27c0 -16 -12 -28 -27 -28h-277v-282h333c18 0 29 -11 29 -27c0 -15 -11 -27 -27 -27h-345c-25 0 -45 19 -45 45z" />
    <glyph glyph-name="F" unicode="F" horiz-adv-x="517" 
d="M382 336h-277v-307c0 -17 -12 -29 -27 -29c-16 0 -28 12 -28 27v628c0 26 20 45 45 45h343c18 0 29 -12 29 -27c0 -16 -11 -27 -27 -27h-335v-255h275c17 0 29 -12 29 -27c0 -16 -12 -28 -27 -28z" />
    <glyph glyph-name="G" unicode="G" horiz-adv-x="587" 
d="M336 331c0 13 12 26 26 26h130c26 0 45 -20 45 -45v-267c0 -26 -19 -45 -45 -45h-207c-151 0 -235 95 -235 236v222c0 175 89 242 235 242h191c13 0 26 -13 26 -26c0 -14 -13 -27 -26 -27h-191c-112 0 -180 -54 -180 -189v-222c0 -106 64 -184 180 -184h198v252h-119
c-17 0 -28 13 -28 27z" />
    <glyph glyph-name="H" unicode="H" horiz-adv-x="596" 
d="M491 377v296c0 15 12 27 28 27c15 0 27 -12 27 -29v-642c0 -17 -12 -29 -27 -29c-16 0 -28 12 -28 27v298h-387v-296c0 -17 -11 -29 -27 -29c-15 0 -27 12 -27 27v646c0 15 12 27 27 27c16 0 27 -12 27 -29v-294h387z" />
    <glyph glyph-name="I" unicode="I" horiz-adv-x="154" 
d="M50 27v646c0 15 11 27 27 27s27 -12 27 -29v-642c0 -17 -11 -29 -27 -29s-27 12 -27 27z" />
    <glyph glyph-name="K" unicode="K" horiz-adv-x="531" 
d="M232 347l243 -302c4 -5 6 -12 6 -18c0 -15 -11 -27 -27 -27c-9 0 -17 5 -21 11l-243 305c-1 2 -4 4 -6 4h-80v-291c0 -17 -12 -29 -27 -29c-16 0 -27 12 -27 27v646c0 15 11 27 27 27c15 0 27 -12 27 -27v-301h78c3 0 4 0 5 1l234 316c5 6 13 11 21 11
c16 0 28 -12 28 -27c0 -6 -1 -11 -5 -16z" />
    <glyph glyph-name="L" unicode="L" horiz-adv-x="486" 
d="M50 45v628c0 15 12 27 27 27c16 0 28 -12 28 -27v-619h302c17 0 29 -11 29 -27c0 -15 -12 -27 -27 -27h-314c-25 0 -45 19 -45 45z" />
    <glyph glyph-name="M" unicode="M" horiz-adv-x="722" 
d="M50 27v601c0 39 33 72 72 72c32 0 60 -20 69 -50l164 -553l176 555c9 28 38 48 69 48c39 0 72 -33 72 -72v-601c0 -15 -12 -27 -27 -27c-16 0 -27 12 -27 27v601c0 10 -8 18 -18 18c-8 0 -14 -5 -15 -12l-195 -608c-5 -15 -17 -26 -35 -26c-19 0 -31 11 -36 26l-181 607
c-2 7 -9 13 -16 13c-10 0 -18 -8 -18 -18v-601c0 -15 -11 -27 -27 -27c-15 0 -27 12 -27 27z" />
    <glyph glyph-name="N" unicode="N" horiz-adv-x="606" 
d="M501 75v598c0 15 12 27 27 27c16 0 28 -12 28 -27v-598c0 -42 -33 -75 -75 -75c-30 0 -56 18 -68 44l-269 589c-3 7 -10 13 -19 13c-12 0 -21 -9 -21 -21v-598c0 -15 -11 -27 -27 -27c-15 0 -27 12 -27 27v598c0 42 33 75 75 75c30 0 56 -18 68 -44l269 -589
c3 -7 10 -13 19 -13c10 0 18 9 20 21z" />
    <glyph glyph-name="O" unicode="O" horiz-adv-x="616" 
d="M285 700h46c146 0 235 -67 235 -242v-222c0 -141 -84 -236 -235 -236h-46c-150 0 -235 95 -235 236v222c0 175 90 242 235 242zM106 458v-222c0 -106 63 -184 179 -184h46c117 0 180 78 180 184v222c0 135 -68 189 -180 189h-46c-111 0 -179 -54 -179 -189z" />
    <glyph glyph-name="P" unicode="P" horiz-adv-x="553" 
d="M50 27v628c0 26 19 45 44 45h226c102 0 183 -83 183 -182c0 -101 -82 -183 -183 -183h-216v-306c0 -17 -12 -29 -27 -29c-16 0 -27 12 -27 27zM104 388h216c72 0 130 58 130 130c0 71 -58 129 -130 129h-216v-259z" />
    <glyph glyph-name="Q" unicode="Q" horiz-adv-x="616" 
d="M285 700h46c146 0 235 -67 235 -242v-222c0 -94 -36 -168 -108 -207l91 -90c6 -5 10 -13 10 -22c0 -15 -12 -27 -29 -27c-7 0 -14 3 -19 8l-110 109c-21 -5 -44 -7 -70 -7h-46c-150 0 -235 95 -235 236v222c0 175 90 242 235 242zM106 458v-222c0 -106 63 -184 179 -184
h46c117 0 180 78 180 184v222c0 135 -68 189 -180 189h-46c-111 0 -179 -54 -179 -189z" />
    <glyph glyph-name="R" unicode="R" horiz-adv-x="553" 
d="M440 16l-174 319h-162v-308c0 -15 -12 -27 -27 -27c-16 0 -27 12 -27 27v628c0 26 19 45 44 45h226c102 0 183 -83 183 -182c0 -98 -77 -178 -173 -183l158 -295c3 -6 3 -9 3 -13c0 -15 -12 -27 -27 -27c-10 0 -20 7 -24 16zM104 388h216c72 0 130 58 130 130
c0 71 -58 129 -130 129h-216v-259z" />
    <glyph glyph-name="S" unicode="S" horiz-adv-x="533" 
d="M50 26c0 14 12 26 26 26h194c104 0 161 44 161 156c0 89 -50 106 -163 128c-120 23 -218 39 -218 188c0 130 84 176 219 176h169c17 0 29 -13 29 -26c0 -14 -13 -27 -27 -27h-171c-103 0 -167 -31 -167 -123c0 -104 69 -118 176 -136c130 -23 205 -56 205 -180
c0 -149 -74 -208 -213 -208h-194c-14 0 -26 13 -26 26z" />
    <glyph glyph-name="T" unicode="T" horiz-adv-x="606" 
d="M278 26v621h-202c-13 0 -26 13 -26 27c0 13 13 26 26 26h451c17 0 29 -13 29 -26c0 -14 -13 -27 -27 -27h-199v-621c0 -13 -13 -26 -26 -26c-14 0 -26 13 -26 26z" />
    <glyph glyph-name="U" unicode="U" horiz-adv-x="579" 
d="M50 201v473c0 13 12 26 26 26s26 -13 26 -26v-473c0 -99 63 -154 131 -154h122c78 0 122 62 122 154v471c0 16 12 28 26 28s26 -13 26 -26v-473c0 -124 -66 -207 -176 -207h-119c-99 0 -184 71 -184 207z" />
    <glyph glyph-name="V" unicode="V" horiz-adv-x="602" 
d="M301 0c-39 0 -72 25 -82 59l-168 609c0 1 -1 5 -1 6c0 13 13 26 26 26c11 0 23 -7 26 -18l171 -607c5 -11 15 -21 28 -21c12 0 23 10 28 21l171 607c3 11 15 18 25 18c14 0 27 -13 27 -26c0 -1 -1 -5 -1 -8l-168 -607c-10 -34 -43 -59 -82 -59z" />
    <glyph glyph-name="W" unicode="W" horiz-adv-x="774" 
d="M641 60c-5 -35 -33 -60 -69 -60c-29 0 -55 20 -67 44l-118 293l-119 -293c-12 -24 -38 -44 -67 -44c-36 0 -64 26 -69 60l-82 610c0 19 14 30 27 30c14 0 26 -11 28 -23l78 -610c1 -8 8 -15 18 -15c9 0 16 5 18 11l137 330c4 11 15 20 31 20c13 0 26 -9 31 -20l136 -330
c2 -6 10 -11 18 -11c10 0 17 7 18 15l80 613c2 11 13 20 27 20c15 0 27 -12 27 -27c0 -2 0 -3 -83 -613z" />
    <glyph glyph-name="X" unicode="X" horiz-adv-x="577" 
d="M478 13l-188 293l-190 -293c-4 -8 -13 -13 -23 -13c-15 0 -27 12 -27 27c0 5 1 10 5 15l199 305l-199 311c-4 5 -5 10 -5 15c0 15 12 27 27 27c10 0 19 -5 22 -13l190 -296l188 296c5 8 13 13 23 13c16 0 27 -12 27 -27c0 -6 -1 -11 -5 -15l-196 -311l196 -305
c3 -5 5 -10 5 -15c0 -15 -11 -27 -27 -27c-10 0 -18 5 -22 13z" />
    <glyph glyph-name="Y" unicode="Y" horiz-adv-x="569" 
d="M516 659l-203 -340v-292c0 -15 -11 -27 -27 -27s-27 12 -27 27v292l-205 338c-2 6 -4 12 -4 16c0 15 11 27 27 27c10 0 18 -5 23 -13l186 -314l183 313c5 8 12 14 23 14c16 0 27 -12 27 -27c0 -5 0 -9 -3 -14z" />
    <glyph glyph-name="Z" unicode="Z" horiz-adv-x="546" 
d="M50 674c0 13 12 26 26 26h354c37 0 66 -29 66 -66c0 -14 -6 -28 -13 -39l-379 -522c-2 -2 -2 -5 -2 -7c0 -7 6 -12 14 -12h351c17 0 29 -11 29 -27c0 -15 -12 -27 -27 -27h-353c-37 0 -66 29 -66 66c0 15 4 27 12 39l379 522c2 2 2 4 2 7c0 8 -5 13 -13 13h-354
c-14 0 -26 13 -26 27z" />
    <glyph glyph-name="J" unicode="J" horiz-adv-x="288" 
d="M50 26c0 14 12 26 26 26c90 0 107 8 107 140v481c0 15 12 27 27 27c16 0 27 -12 27 -29v-231c0 -74 1 -150 1 -257c0 -172 -50 -183 -160 -183c-17 0 -28 13 -28 26z" />
    <glyph glyph-name="grave" unicode="`" horiz-adv-x="309" 
d="M220 546l-156 73c-8 5 -14 14 -14 24c0 3 0 7 2 11c5 9 14 14 24 14l12 -3c49 -23 107 -52 156 -74c9 -4 15 -13 15 -23c0 -3 0 -6 -3 -11c-5 -10 -11 -15 -22 -15c-4 0 -10 1 -14 4z" />
    <glyph glyph-name="acute" unicode="&#xb4;" horiz-adv-x="309" 
d="M245 619l-157 -73c-4 -3 -9 -4 -13 -4c-10 0 -17 5 -23 17c-2 3 -2 6 -2 9c0 10 6 19 16 23l157 75c4 2 7 2 10 2c11 0 19 -5 24 -14c2 -4 2 -8 2 -11c0 -10 -6 -19 -14 -24z" />
    <glyph glyph-name="circumflex" unicode="&#x2c6;" horiz-adv-x="340" 
d="M204 703l80 -86c3 -5 6 -8 6 -15c0 -15 -12 -25 -24 -25c-8 0 -15 3 -20 9l-76 80l-78 -81c-5 -5 -11 -8 -17 -8c-15 0 -25 10 -25 25c0 5 2 11 5 15l76 85c9 10 23 19 39 19c13 0 26 -8 34 -18z" />
    <glyph glyph-name="tilde" unicode="&#x2dc;" horiz-adv-x="400" 
d="M60 603c26 23 54 41 83 41c35 0 59 -16 79 -31c16 -10 28 -20 44 -20c7 0 24 15 38 26c5 5 13 8 18 8c15 0 28 -14 28 -28c0 -6 -3 -13 -7 -18c-25 -23 -52 -44 -77 -44c-34 0 -56 16 -76 30l-3 2l-5 4c-14 9 -25 16 -40 16c-14 0 -31 -13 -46 -26c-4 -4 -12 -7 -19 -7
c-15 0 -27 11 -27 27c0 8 4 14 10 20z" />
    <glyph glyph-name="ring" unicode="&#x2da;" horiz-adv-x="291" 
d="M50 633c0 53 41 95 95 95c53 0 96 -42 96 -95c0 -54 -43 -96 -96 -96c-54 0 -95 42 -95 96zM97 633c0 -28 21 -50 49 -50c27 0 48 22 48 50c0 27 -21 49 -48 49c-28 0 -49 -22 -49 -49z" />
    <glyph glyph-name="caron" unicode="&#x2c7;" horiz-adv-x="340" 
d="M284 652l-80 -86c-8 -10 -21 -18 -34 -18c-16 0 -30 9 -39 19c-5 6 -76 85 -76 85c-3 4 -5 10 -5 15c0 15 10 25 25 25c6 0 12 -3 17 -7l78 -90l76 88c5 5 12 9 20 9c12 0 24 -10 24 -25c0 -6 -3 -11 -6 -15z" />
    <glyph glyph-name="scaron" unicode="&#x161;" horiz-adv-x="469" 
d="M349 654l-80 -86c-9 -10 -21 -18 -34 -18c-16 0 -30 8 -39 19c-6 6 -76 85 -76 85c-4 4 -6 10 -6 15c0 14 11 25 25 25c7 0 13 -3 18 -8l78 -89l75 87c5 6 13 10 21 10c12 0 24 -11 24 -25c0 -7 -3 -11 -6 -15zM65 25c0 14 11 25 25 25h141c81 0 133 23 133 94
c0 48 -39 78 -108 87l-43 5c-102 11 -163 43 -163 134c0 99 79 138 170 138h153c16 0 27 -11 27 -25c0 -15 -11 -25 -25 -25h-155c-65 0 -115 -24 -115 -86c0 -56 37 -75 122 -85l38 -5c95 -13 154 -54 154 -137c0 -111 -77 -145 -188 -145h-141c-14 0 -25 11 -25 25z" />
    <glyph glyph-name="yacute" unicode="&#xfd;" horiz-adv-x="483" 
d="M247 56l136 426c4 9 13 18 24 18c15 0 26 -11 26 -26c0 -2 0 -4 -1 -7l-212 -671c-3 -9 -11 -17 -24 -17c-14 0 -25 10 -25 25c0 3 0 6 1 8l59 189c-21 3 -41 19 -47 39l-133 428c0 1 -1 5 -1 6c0 15 11 26 25 26c12 0 21 -8 25 -17l133 -426c1 -3 4 -5 6 -5c5 0 8 2 8 4
zM333 627l-158 -73c-4 -3 -9 -4 -12 -4c-11 0 -18 5 -24 16c-1 4 -1 7 -1 10c0 9 5 18 15 23l158 75c3 2 6 2 9 2c11 0 19 -5 24 -15c2 -3 2 -7 2 -10c0 -11 -6 -19 -13 -24z" />
    <glyph glyph-name="aacute" unicode="&#xe1;" horiz-adv-x="471" 
d="M79 484c0 14 10 25 25 25h181c80 0 136 -62 136 -146v-323c0 -23 -17 -40 -40 -40h-187c-80 0 -144 63 -144 143c0 79 64 144 144 144h174v73c0 55 -31 99 -83 99h-179c-17 0 -27 10 -27 25zM194 52h174v184h-174c-51 0 -92 -42 -92 -93c0 -50 41 -91 92 -91zM343 626
l-157 -73c-4 -3 -9 -4 -13 -4c-11 0 -17 5 -23 16c-2 4 -2 7 -2 10c0 9 6 18 15 23l158 75c4 2 7 2 10 2c10 0 19 -5 24 -15c2 -3 2 -7 2 -10c0 -11 -6 -19 -14 -24z" />
    <glyph glyph-name="agrave" unicode="&#xe0;" horiz-adv-x="471" 
d="M79 484c0 14 10 25 25 25h181c80 0 136 -62 136 -146v-323c0 -23 -17 -40 -40 -40h-187c-80 0 -144 63 -144 143c0 79 64 144 144 144h174v73c0 55 -31 99 -83 99h-179c-17 0 -27 10 -27 25zM194 52h174v184h-174c-51 0 -92 -42 -92 -93c0 -50 41 -91 92 -91zM319 552
l-158 73c-7 5 -13 13 -13 24c0 3 0 7 2 10c5 10 13 15 24 15l12 -3c49 -23 106 -52 155 -74c10 -5 16 -14 16 -23c0 -3 0 -6 -3 -12c-5 -9 -12 -14 -22 -14c-4 0 -9 1 -13 4z" />
    <glyph glyph-name="acircumflex" unicode="&#xe2;" horiz-adv-x="471" 
d="M79 484c0 14 10 25 25 25h181c80 0 136 -62 136 -146v-323c0 -23 -17 -40 -40 -40h-187c-80 0 -144 63 -144 143c0 79 64 144 144 144h174v73c0 55 -31 99 -83 99h-179c-17 0 -27 10 -27 25zM194 52h174v184h-174c-51 0 -92 -42 -92 -93c0 -50 41 -91 92 -91zM286 675
l81 -87c3 -5 6 -8 6 -15c0 -15 -12 -25 -24 -25c-8 0 -15 3 -20 8l-76 81l-78 -81c-5 -5 -11 -8 -17 -8c-15 0 -25 10 -25 25c0 5 2 11 5 15l76 85c9 10 23 19 39 19c13 0 26 -8 33 -17z" />
    <glyph glyph-name="adieresis" unicode="&#xe4;" horiz-adv-x="471" 
d="M79 484c0 14 10 25 25 25h181c80 0 136 -62 136 -146v-323c0 -23 -17 -40 -40 -40h-187c-80 0 -144 63 -144 143c0 79 64 144 144 144h174v73c0 55 -31 99 -83 99h-179c-17 0 -27 10 -27 25zM194 52h174v184h-174c-51 0 -92 -42 -92 -93c0 -50 41 -91 92 -91zM145 575v26
c0 15 11 27 26 27s27 -12 27 -27v-26c0 -16 -12 -26 -27 -26s-26 10 -26 26zM309 575v26c0 15 10 27 26 27c15 0 26 -12 26 -27v-26c0 -16 -11 -26 -26 -26c-16 0 -26 10 -26 26z" />
    <glyph glyph-name="atilde" unicode="&#xe3;" horiz-adv-x="471" 
d="M79 484c0 14 10 25 25 25h181c80 0 136 -62 136 -146v-323c0 -23 -17 -40 -40 -40h-187c-80 0 -144 63 -144 143c0 79 64 144 144 144h174v73c0 55 -31 99 -83 99h-179c-17 0 -27 10 -27 25zM194 52h174v184h-174c-51 0 -92 -42 -92 -93c0 -50 41 -91 92 -91zM112 613
c26 23 54 42 83 42c36 0 60 -17 80 -31c15 -11 28 -20 43 -20c8 0 24 14 39 26c4 4 12 7 18 7c14 0 28 -13 28 -28c0 -5 -3 -13 -8 -18c-24 -23 -52 -43 -77 -43c-33 0 -56 15 -76 30l-4 3c-14 10 -28 19 -44 19c-13 0 -31 -14 -45 -26c-5 -5 -13 -8 -19 -8
c-16 0 -27 12 -27 27c0 9 4 14 9 20z" />
    <glyph glyph-name="aring" unicode="&#xe5;" horiz-adv-x="471" 
d="M79 484c0 14 10 25 25 25h181c80 0 136 -62 136 -146v-323c0 -23 -17 -40 -40 -40h-187c-80 0 -144 63 -144 143c0 79 64 144 144 144h174v73c0 55 -31 99 -83 99h-179c-17 0 -27 10 -27 25zM194 52h174v184h-174c-51 0 -92 -42 -92 -93c0 -50 41 -91 92 -91zM158 639
c0 53 41 95 95 95c53 0 95 -42 95 -95c0 -54 -42 -95 -95 -95c-54 0 -95 41 -95 95zM205 639c0 -28 21 -50 49 -50c27 0 48 22 48 50c0 27 -21 49 -48 49c-28 0 -49 -22 -49 -49z" />
    <glyph glyph-name="eacute" unicode="&#xe9;" horiz-adv-x="480" 
d="M389 228h-286c2 -116 32 -178 132 -178h153c16 0 26 -11 26 -25s-10 -25 -25 -25h-155c-145 0 -184 78 -184 237v78c0 124 82 194 188 194c124 0 192 -67 192 -194v-47c0 -23 -17 -40 -41 -40zM103 278h274v37c0 94 -46 144 -139 144c-85 0 -135 -57 -135 -144v-37z
M328 626l-158 -73c-4 -3 -8 -4 -12 -4c-11 0 -18 5 -23 16c-2 4 -2 7 -2 10c0 9 5 18 15 23l158 75c4 2 7 2 9 2c11 0 20 -5 24 -15c2 -4 2 -7 2 -10c0 -11 -5 -19 -13 -24z" />
    <glyph glyph-name="egrave" unicode="&#xe8;" horiz-adv-x="480" 
d="M389 228h-286c2 -116 32 -178 132 -178h153c16 0 26 -11 26 -25s-10 -25 -25 -25h-155c-145 0 -184 78 -184 237v78c0 124 82 194 188 194c124 0 192 -67 192 -194v-47c0 -23 -17 -40 -41 -40zM103 278h274v37c0 94 -46 144 -139 144c-85 0 -135 -57 -135 -144v-37z
M304 551l-158 73c-8 5 -13 13 -13 24c0 3 0 6 2 10c4 10 13 15 24 15l11 -3c49 -23 107 -52 156 -74c10 -5 15 -14 15 -23c0 -3 0 -6 -3 -12c-4 -9 -11 -14 -22 -14c-3 0 -8 1 -12 4z" />
    <glyph glyph-name="ecircumflex" unicode="&#xea;" horiz-adv-x="480" 
d="M389 228h-286c2 -116 32 -178 132 -178h153c16 0 26 -11 26 -25s-10 -25 -25 -25h-155c-145 0 -184 78 -184 237v78c0 124 82 194 188 194c124 0 192 -67 192 -194v-47c0 -23 -17 -40 -41 -40zM103 278h274v37c0 94 -46 144 -139 144c-85 0 -135 -57 -135 -144v-37z
M271 672l81 -87c3 -5 6 -8 6 -15c0 -15 -12 -25 -24 -25c-8 0 -16 3 -21 8l-75 81l-78 -82c-5 -4 -11 -7 -18 -7c-14 0 -25 10 -25 25c0 5 2 11 6 15l76 85c9 10 23 19 39 19c13 0 25 -8 33 -17z" />
    <glyph glyph-name="edieresis" unicode="&#xeb;" horiz-adv-x="480" 
d="M389 228h-286c2 -116 32 -178 132 -178h153c16 0 26 -11 26 -25s-10 -25 -25 -25h-155c-145 0 -184 78 -184 237v78c0 124 82 194 188 194c124 0 192 -67 192 -194v-47c0 -23 -17 -40 -41 -40zM103 278h274v37c0 94 -46 144 -139 144c-85 0 -135 -57 -135 -144v-37z
M129 575v26c0 15 10 27 26 27c15 0 27 -12 27 -27v-26c0 -16 -12 -26 -27 -26c-16 0 -26 10 -26 26zM292 575v26c0 15 11 27 26 27c16 0 27 -12 27 -27v-26c0 -16 -11 -26 -27 -26c-15 0 -26 10 -26 26z" />
    <glyph glyph-name="idieresis" unicode="&#xef;" horiz-adv-x="317" 
d="M50 574v26c0 15 11 27 26 27c16 0 27 -12 27 -27v-26c0 -16 -11 -26 -27 -26c-15 0 -26 10 -26 26zM214 574v26c0 15 10 27 26 27c15 0 27 -12 27 -27v-26c0 -16 -12 -26 -27 -26c-16 0 -26 10 -26 26zM128 473v-446c0 -15 12 -27 27 -27c16 0 27 12 27 29v442
c0 17 -11 29 -27 29c-15 0 -27 -12 -27 -27z" />
    <glyph glyph-name="ntilde" unicode="&#xf1;" horiz-adv-x="478" 
d="M375 27v315c0 70 -48 117 -104 117h-168v-430c0 -17 -12 -29 -27 -29s-26 13 -26 27v439c0 22 17 43 42 43h179c84 0 157 -61 157 -167v-315c0 -14 -12 -27 -27 -27s-26 13 -26 27zM97 609c26 23 54 42 83 42c34 0 58 -15 80 -31c15 -11 27 -20 43 -20s24 23 38 26
c5 4 13 7 19 7c14 0 27 -13 27 -28c0 -5 -2 -13 -7 -18c-24 -23 -52 -43 -77 -43c-34 0 -56 15 -76 30l-4 3c-14 10 -28 19 -44 19c-14 0 -31 -14 -45 -26c-5 -5 -13 -8 -20 -8c-15 0 -27 12 -27 27c0 9 4 14 10 20z" />
    <glyph glyph-name="oacute" unicode="&#xf3;" horiz-adv-x="494" 
d="M278 -6h-61c-95 0 -167 70 -167 176v152c0 106 70 186 167 186h61c96 0 166 -80 166 -186v-152c0 -106 -72 -176 -166 -176zM217 44h61c64 0 114 57 114 126v152c0 70 -50 136 -114 136h-61c-65 0 -114 -66 -114 -136v-152c0 -69 49 -126 114 -126zM338 623l-158 -73
c-4 -3 -9 -4 -13 -4c-10 0 -17 5 -23 16c-2 4 -2 7 -2 10c0 9 6 18 16 23l158 75c3 2 6 2 9 2c11 0 19 -5 24 -15c2 -3 2 -7 2 -10c0 -11 -6 -19 -13 -24z" />
    <glyph glyph-name="ograve" unicode="&#xf2;" horiz-adv-x="494" 
d="M278 -6h-61c-95 0 -167 70 -167 176v152c0 106 70 186 167 186h61c96 0 166 -80 166 -186v-152c0 -106 -72 -176 -166 -176zM217 44h61c64 0 114 57 114 126v152c0 70 -50 136 -114 136h-61c-65 0 -114 -66 -114 -136v-152c0 -69 49 -126 114 -126zM314 551l-158 73
c-8 5 -14 13 -14 24c0 3 0 7 2 10c5 10 14 15 24 15l12 -3c49 -23 107 -52 156 -74c9 -5 15 -14 15 -23c0 -3 0 -6 -3 -12c-5 -9 -11 -14 -22 -14c-4 0 -9 1 -12 4z" />
    <glyph glyph-name="ocircumflex" unicode="&#xf4;" horiz-adv-x="494" 
d="M278 -6h-61c-95 0 -167 70 -167 176v152c0 106 70 186 167 186h61c96 0 166 -80 166 -186v-152c0 -106 -72 -176 -166 -176zM217 44h61c64 0 114 57 114 126v152c0 70 -50 136 -114 136h-61c-65 0 -114 -66 -114 -136v-152c0 -69 49 -126 114 -126zM281 674l81 -88
c3 -5 5 -7 5 -14c0 -15 -11 -25 -24 -25c-7 0 -15 3 -20 8l-76 81l-78 -81c-4 -5 -10 -8 -17 -8c-14 0 -25 10 -25 25c0 5 2 11 6 15l76 85c8 10 23 19 38 19c14 0 26 -8 34 -17z" />
    <glyph glyph-name="odieresis" unicode="&#xf6;" horiz-adv-x="494" 
d="M278 -6h-61c-95 0 -167 70 -167 176v152c0 106 70 186 167 186h61c96 0 166 -80 166 -186v-152c0 -106 -72 -176 -166 -176zM217 44h61c64 0 114 57 114 126v152c0 70 -50 136 -114 136h-61c-65 0 -114 -66 -114 -136v-152c0 -69 49 -126 114 -126zM140 574v26
c0 15 10 27 26 27c15 0 26 -12 26 -27v-26c0 -16 -11 -26 -26 -26c-16 0 -26 10 -26 26zM303 574v26c0 15 11 27 26 27s27 -12 27 -27v-26c0 -16 -12 -26 -27 -26s-26 10 -26 26z" />
    <glyph glyph-name="otilde" unicode="&#xf5;" horiz-adv-x="494" 
d="M278 -6h-61c-95 0 -167 70 -167 176v152c0 106 70 186 167 186h61c96 0 166 -80 166 -186v-152c0 -106 -72 -176 -166 -176zM217 44h61c64 0 114 57 114 126v152c0 70 -50 136 -114 136h-61c-65 0 -114 -66 -114 -136v-152c0 -69 49 -126 114 -126zM107 607
c26 23 54 42 83 42c35 0 59 -17 79 -31l3 -2l5 -4c13 -8 23 -14 36 -14c7 0 24 14 38 26c5 4 13 7 18 7c15 0 28 -13 28 -28c0 -5 -3 -13 -7 -18c-24 -23 -52 -43 -77 -43c-34 0 -56 15 -76 30c-17 11 -30 22 -48 22c-13 0 -27 -11 -41 -22c-1 -1 -5 -4 -5 -4
c-4 -5 -12 -8 -19 -8c-15 0 -27 12 -27 27c0 9 4 14 10 20z" />
    <glyph glyph-name="uacute" unicode="&#xfa;" horiz-adv-x="478" 
d="M103 482v-316c0 -69 48 -116 104 -116h168v430c0 15 12 29 27 29s26 -14 26 -27v-440c0 -22 -17 -42 -42 -42h-179c-84 0 -157 61 -157 166v316c0 13 12 27 27 27s26 -14 26 -27zM335 624l-158 -73c-4 -3 -9 -4 -13 -4c-10 0 -17 5 -23 16c-2 4 -2 7 -2 10
c0 9 6 18 16 23l157 75c4 2 7 2 10 2c11 0 19 -5 24 -15c2 -3 2 -7 2 -10c0 -11 -6 -19 -13 -24z" />
    <glyph glyph-name="ugrave" unicode="&#xf9;" horiz-adv-x="478" 
d="M103 482v-316c0 -69 48 -116 104 -116h168v430c0 15 12 29 27 29s26 -14 26 -27v-440c0 -22 -17 -42 -42 -42h-179c-84 0 -157 61 -157 166v316c0 13 12 27 27 27s26 -14 26 -27zM311 551l-158 73c-8 4 -14 13 -14 24c0 3 0 6 2 10c5 10 14 15 24 15l12 -3
c49 -23 107 -52 156 -74c9 -5 15 -14 15 -23c0 -3 0 -6 -3 -12c-5 -9 -11 -14 -22 -14c-4 0 -9 1 -12 4z" />
    <glyph glyph-name="ucircumflex" unicode="&#xfb;" horiz-adv-x="478" 
d="M103 482v-316c0 -69 48 -116 104 -116h168v430c0 15 12 29 27 29s26 -14 26 -27v-440c0 -22 -17 -42 -42 -42h-179c-84 0 -157 61 -157 166v316c0 13 12 27 27 27s26 -14 26 -27zM278 675l81 -88c3 -5 5 -7 5 -14c0 -15 -11 -25 -24 -25c-7 0 -15 3 -20 8l-76 81l-78 -82
c-4 -4 -10 -7 -17 -7c-14 0 -25 10 -25 25c0 5 2 11 6 15l76 85c8 10 23 19 38 19c14 0 26 -8 34 -17z" />
    <glyph glyph-name="udieresis" unicode="&#xfc;" horiz-adv-x="478" 
d="M103 482v-316c0 -69 48 -116 104 -116h168v430c0 15 12 29 27 29s26 -14 26 -27v-440c0 -22 -17 -42 -42 -42h-179c-84 0 -157 61 -157 166v316c0 13 12 27 27 27s26 -14 26 -27zM136 574v26c0 15 10 27 26 27c15 0 26 -12 26 -27v-26c0 -16 -11 -26 -26 -26
c-16 0 -26 10 -26 26zM299 574v26c0 15 11 27 26 27s27 -12 27 -27v-26c0 -16 -12 -26 -27 -26s-26 10 -26 26z" />
    <glyph glyph-name="asterisk" unicode="*" horiz-adv-x="412" 
d="M247 508l63 -88l1 -8c0 -8 -4 -16 -10 -22c-3 -3 -4 -4 -8 -4c-3 -1 -7 -1 -9 -1c-9 0 -16 4 -21 10l-60 82l-58 -81c-4 -4 -11 -8 -17 -9h-4c-5 0 -11 0 -17 5c-4 3 -6 7 -7 12c-2 4 -2 7 -2 9c0 6 2 12 6 17c20 29 39 51 59 80l-97 32c-7 3 -13 7 -15 16
c-1 1 -1 3 -1 4v4c0 3 0 5 1 7c2 8 9 16 21 19c1 0 4 1 5 1s1 -1 5 -1l98 -33v100c0 10 8 22 17 24c4 2 7 2 10 2c11 0 23 -9 25 -19c2 -4 2 -5 2 -9v-98l92 28c4 2 7 2 10 2c11 0 21 -8 25 -20c1 -3 1 -5 1 -7c0 -12 -7 -22 -18 -25z" />
    <glyph glyph-name="dotlessi" unicode="&#x131;" horiz-adv-x="154" 
d="M50 27v446c0 15 12 27 27 27c16 0 27 -12 27 -29v-442c0 -17 -11 -29 -27 -29c-15 0 -27 12 -27 27z" />
    <glyph glyph-name="iacute" unicode="&#xed;" horiz-adv-x="309" 
d="M245 624l-157 -73c-4 -3 -9 -4 -13 -4c-10 0 -17 5 -23 16c-2 4 -2 7 -2 10c0 9 6 18 16 23l157 75c4 2 7 2 10 2c11 0 19 -5 24 -15c2 -3 2 -7 2 -10c0 -11 -6 -19 -14 -24zM128 473v-446c0 -15 12 -27 27 -27c16 0 27 12 27 29v442c0 17 -11 29 -27 29
c-15 0 -27 -12 -27 -27z" />
    <glyph glyph-name="igrave" unicode="&#xec;" horiz-adv-x="309" 
d="M221 552l-157 73c-8 5 -14 13 -14 24c0 3 0 7 2 10c5 10 14 15 24 15l12 -3c49 -23 107 -52 156 -74c9 -5 15 -14 15 -23c0 -3 0 -6 -3 -12c-5 -9 -11 -14 -22 -14c-4 0 -9 1 -13 4zM128 473v-446c0 -15 12 -27 27 -27c16 0 27 12 27 29v442c0 17 -11 29 -27 29
c-15 0 -27 -12 -27 -27z" />
    <glyph glyph-name="icircumflex" unicode="&#xee;" horiz-adv-x="340" 
d="M203 676l81 -87c3 -5 6 -8 6 -15c0 -15 -12 -25 -24 -25c-8 0 -15 3 -20 8l-76 81l-78 -81c-5 -5 -11 -8 -17 -8c-15 0 -25 10 -25 25c0 5 2 11 5 15l76 85c9 10 23 19 39 19c13 0 26 -8 33 -17zM128 473v-446c0 -15 12 -27 27 -27c16 0 27 12 27 29v442
c0 17 -11 29 -27 29c-15 0 -27 -12 -27 -27z" />
    <glyph glyph-name="one" unicode="1" horiz-adv-x="343" 
d="M62 546l167 111c7 4 15 6 22 6c24 0 42 -18 42 -42v-592c0 -17 -12 -29 -27 -29s-27 12 -27 27v573l-146 -99c-5 -3 -11 -5 -16 -5c-16 0 -27 12 -27 27c0 10 5 18 12 23z" />
    <glyph glyph-name="nine" unicode="9" horiz-adv-x="536" 
d="M430 239v13h-170c-138 0 -210 57 -210 175v41c0 116 71 195 216 195c146 0 220 -66 220 -228v-196c0 -164 -89 -239 -241 -239h-145c-17 0 -28 12 -28 26c0 13 12 26 26 26h147c117 0 185 60 185 187zM262 304h168v129c0 133 -53 179 -164 179c-113 0 -161 -57 -161 -144
v-41c0 -81 52 -123 157 -123z" />
    <glyph glyph-name="Agrave" unicode="&#xc0;" horiz-adv-x="628" 
d="M450 262l-110 363c-5 10 -16 20 -26 20s-21 -11 -26 -20l-110 -363h272zM393 642l184 -610c0 -1 1 -5 1 -6c0 -13 -12 -26 -27 -26c-10 0 -21 10 -25 18l-61 191h-304l-58 -191c-4 -9 -15 -18 -27 -18c-13 0 -26 13 -26 26c0 3 0 6 1 9l184 607c10 34 42 58 79 58
c38 0 69 -24 79 -58zM381 752l-160 74c-7 5 -13 14 -13 24c0 3 0 7 2 11c5 10 13 15 24 15l12 -3l7 -3c48 -23 103 -51 150 -72c10 -5 16 -14 16 -24c0 -2 0 -5 -3 -11c-5 -10 -12 -15 -23 -15c-3 0 -8 1 -12 4z" />
    <glyph glyph-name="Aacute" unicode="&#xc1;" horiz-adv-x="628" 
d="M450 262l-110 363c-5 10 -16 20 -26 20s-21 -11 -26 -20l-110 -363h272zM393 642l184 -610c0 -1 1 -5 1 -6c0 -13 -12 -26 -27 -26c-10 0 -21 10 -25 18l-61 191h-304l-58 -191c-4 -9 -15 -18 -27 -18c-13 0 -26 13 -26 26c0 3 0 6 1 9l184 607c10 34 42 58 79 58
c38 0 69 -24 79 -58zM405 828l-159 -74c-4 -3 -9 -4 -13 -4c-11 0 -18 5 -23 17c-2 4 -2 7 -2 9c0 10 6 19 15 24l160 76c4 2 7 2 9 2c11 0 20 -5 25 -15c2 -4 2 -8 2 -11c0 -10 -6 -19 -14 -24z" />
    <glyph glyph-name="Acircumflex" unicode="&#xc2;" horiz-adv-x="628" 
d="M450 262l-110 363c-5 10 -16 20 -26 20s-21 -11 -26 -20l-110 -363h272zM393 642l184 -610c0 -1 1 -5 1 -6c0 -13 -12 -26 -27 -26c-10 0 -21 10 -25 18l-61 191h-304l-58 -191c-4 -9 -15 -18 -27 -18c-13 0 -26 13 -26 26c0 3 0 6 1 9l184 607c10 34 42 58 79 58
c38 0 69 -24 79 -58zM348 878l81 -88c3 -5 6 -9 6 -16c0 -14 -11 -25 -24 -25c-8 0 -16 3 -21 9l-76 82l-79 -83c-5 -5 -11 -8 -18 -8c-14 0 -25 11 -25 25c0 5 2 12 6 16l77 86c9 10 23 19 39 19c13 0 26 -8 34 -17z" />
    <glyph glyph-name="Atilde" unicode="&#xc3;" horiz-adv-x="628" 
d="M450 262l-110 363c-5 10 -16 20 -26 20s-21 -11 -26 -20l-110 -363h272zM393 642l184 -610c0 -1 1 -5 1 -6c0 -13 -12 -26 -27 -26c-10 0 -21 10 -25 18l-61 191h-304l-58 -191c-4 -9 -15 -18 -27 -18c-13 0 -26 13 -26 26c0 3 0 6 1 9l184 607c10 34 42 58 79 58
c38 0 69 -24 79 -58zM172 811c26 24 54 42 83 42c36 0 61 -16 81 -31l3 -2l5 -4c13 -8 23 -14 36 -14c8 0 24 14 39 26c5 5 12 8 18 8c15 0 28 -14 28 -29c0 -5 -3 -13 -7 -18c-25 -23 -53 -44 -78 -44c-34 0 -57 16 -77 30c-17 12 -30 23 -49 23c-13 0 -31 -14 -45 -27
c-5 -4 -13 -7 -20 -7c-15 0 -27 11 -27 27c0 9 4 14 10 20z" />
    <glyph glyph-name="Adieresis" unicode="&#xc4;" horiz-adv-x="628" 
d="M450 262l-110 363c-5 10 -16 20 -26 20s-21 -11 -26 -20l-110 -363h272zM393 642l184 -610c0 -1 1 -5 1 -6c0 -13 -12 -26 -27 -26c-10 0 -21 10 -25 18l-61 191h-304l-58 -191c-4 -9 -15 -18 -27 -18c-13 0 -26 13 -26 26c0 3 0 6 1 9l184 607c10 34 42 58 79 58
c38 0 69 -24 79 -58zM205 776v27c0 15 10 27 26 27s27 -12 27 -27v-27c0 -15 -11 -26 -27 -26s-26 11 -26 26zM370 776v27c0 15 11 27 26 27c16 0 28 -12 28 -27v-27c0 -15 -12 -26 -28 -26c-15 0 -26 11 -26 26z" />
    <glyph glyph-name="Aring" unicode="&#xc5;" horiz-adv-x="628" 
d="M450 262l-110 363c-5 10 -16 20 -26 20s-21 -11 -26 -20l-110 -363h272zM393 642l184 -610c0 -1 1 -5 1 -6c0 -13 -12 -26 -27 -26c-10 0 -21 10 -25 18l-61 191h-304l-58 -191c-4 -9 -15 -18 -27 -18c-13 0 -26 13 -26 26c0 3 0 6 1 9l184 607c10 34 42 58 79 58
c38 0 69 -24 79 -58zM217 837c0 53 42 96 97 96c53 0 96 -43 96 -96c0 -55 -43 -97 -96 -97c-55 0 -97 42 -97 97zM265 837c0 -29 21 -51 50 -51c27 0 48 22 48 51c0 27 -21 49 -48 49c-29 0 -50 -22 -50 -49z" />
    <glyph glyph-name="AE" unicode="&#xc6;" horiz-adv-x="771" 
d="M162 209l-59 -191c-4 -9 -15 -18 -27 -18c-13 0 -26 13 -26 26c0 3 0 6 1 9l184 607c10 34 42 58 79 58h378c17 0 29 -12 29 -27c0 -16 -12 -27 -27 -27h-336v-255h276c17 0 29 -12 29 -27c0 -16 -12 -28 -27 -28h-278v-282h334c17 0 29 -11 29 -27
c0 -15 -12 -27 -27 -27h-345c-26 0 -45 19 -45 45v164h-142zM288 625l-110 -363h126v380c-7 -4 -12 -11 -16 -17z" />
    <glyph glyph-name="Egrave" unicode="&#xc8;" horiz-adv-x="517" 
d="M50 45v610c0 26 20 45 45 45h343c18 0 29 -12 29 -27c0 -16 -11 -27 -27 -27h-335v-255h275c17 0 29 -12 29 -27c0 -16 -12 -28 -27 -28h-277v-282h333c18 0 29 -11 29 -27c0 -15 -11 -27 -27 -27h-345c-25 0 -45 19 -45 45zM305 754l-159 74c-8 5 -14 14 -14 24
c0 3 0 7 2 11c5 10 14 15 24 15l12 -3c50 -24 108 -53 157 -75c10 -5 16 -14 16 -24c0 -2 0 -5 -3 -11c-5 -10 -12 -15 -22 -15c-4 0 -9 1 -13 4z" />
    <glyph glyph-name="Eacute" unicode="&#xc9;" horiz-adv-x="517" 
d="M50 45v610c0 26 20 45 45 45h343c18 0 29 -12 29 -27c0 -16 -11 -27 -27 -27h-335v-255h275c17 0 29 -12 29 -27c0 -16 -12 -28 -27 -28h-277v-282h333c18 0 29 -11 29 -27c0 -15 -11 -27 -27 -27h-345c-25 0 -45 19 -45 45zM329 827l-159 -74c-4 -3 -9 -4 -13 -4
c-10 0 -17 5 -23 17c-2 4 -2 6 -2 9c0 10 6 19 16 24l159 76c4 2 7 2 10 2c10 0 19 -5 24 -15c2 -4 2 -8 2 -11c0 -10 -6 -19 -14 -24z" />
    <glyph glyph-name="Ecircumflex" unicode="&#xca;" horiz-adv-x="517" 
d="M50 45v610c0 26 20 45 45 45h343c18 0 29 -12 29 -27c0 -16 -11 -27 -27 -27h-335v-255h275c17 0 29 -12 29 -27c0 -16 -12 -28 -27 -28h-277v-282h333c18 0 29 -11 29 -27c0 -15 -11 -27 -27 -27h-345c-25 0 -45 19 -45 45zM272 878l82 -88c3 -5 6 -9 6 -16
c0 -14 -12 -25 -25 -25c-8 0 -15 3 -20 9l-77 82c-19 -21 -79 -83 -79 -83c-5 -5 -10 -8 -17 -8c-15 0 -25 11 -25 25c0 5 1 12 5 16l77 86c9 10 23 19 39 19c14 0 26 -8 34 -17z" />
    <glyph glyph-name="Edieresis" unicode="&#xcb;" horiz-adv-x="517" 
d="M50 45v610c0 26 20 45 45 45h343c18 0 29 -12 29 -27c0 -16 -11 -27 -27 -27h-335v-255h275c17 0 29 -12 29 -27c0 -16 -12 -28 -27 -28h-277v-282h333c18 0 29 -11 29 -27c0 -15 -11 -27 -27 -27h-345c-25 0 -45 19 -45 45zM129 776v27c0 15 11 27 26 27
c16 0 28 -12 28 -27v-27c0 -15 -12 -26 -28 -26c-15 0 -26 11 -26 26zM294 776v27c0 15 11 27 27 27c15 0 27 -12 27 -27v-27c0 -15 -12 -26 -27 -26c-16 0 -27 11 -27 26z" />
    <glyph glyph-name="Igrave" unicode="&#xcc;" horiz-adv-x="311" 
d="M128 27v646c0 15 11 27 27 27c15 0 27 -12 27 -29v-642c0 -17 -12 -29 -27 -29c-16 0 -27 12 -27 27zM223 752l-159 74c-8 5 -14 14 -14 24c0 3 0 7 2 11c5 10 13 15 24 15l12 -3l7 -3c48 -23 103 -51 150 -72c10 -5 16 -14 16 -24c0 -2 0 -5 -3 -11
c-5 -10 -12 -15 -22 -15c-4 0 -9 1 -13 4z" />
    <glyph glyph-name="Iacute" unicode="&#xcd;" horiz-adv-x="311" 
d="M128 27v646c0 15 11 27 27 27c15 0 27 -12 27 -29v-642c0 -17 -12 -29 -27 -29c-16 0 -27 12 -27 27zM247 828l-159 -74c-4 -3 -9 -4 -13 -4c-10 0 -17 5 -23 17c-2 4 -2 7 -2 9c0 10 6 19 15 24l160 76c4 2 7 2 10 2c10 0 19 -5 24 -15c2 -4 2 -8 2 -11
c0 -10 -6 -19 -14 -24z" />
    <glyph glyph-name="Icircumflex" unicode="&#xce;" horiz-adv-x="343" 
d="M144 27v646c0 15 12 27 28 27c15 0 27 -12 27 -29v-642c0 -17 -12 -29 -27 -29c-16 0 -28 12 -28 27zM206 877l81 -88c3 -5 6 -9 6 -16c0 -14 -11 -25 -24 -25c-8 0 -16 3 -20 9l-77 82l-79 -83c-5 -5 -11 -8 -18 -8c-14 0 -25 11 -25 25c0 5 2 12 6 16l77 86
c9 10 23 19 39 19c13 0 26 -8 34 -17z" />
    <glyph glyph-name="Idieresis" unicode="&#xcf;" horiz-adv-x="319" 
d="M132 27v646c0 15 11 27 27 27c15 0 27 -12 27 -29v-642c0 -17 -12 -29 -27 -29c-16 0 -27 12 -27 27zM50 774v27c0 15 11 27 26 27c16 0 27 -12 27 -27v-27c0 -15 -11 -26 -27 -26c-15 0 -26 11 -26 26zM215 774v27c0 15 11 27 27 27c15 0 27 -12 27 -27v-27
c0 -15 -12 -26 -27 -26c-16 0 -27 11 -27 26z" />
    <glyph glyph-name="Ntilde" unicode="&#xd1;" horiz-adv-x="606" 
d="M501 75v598c0 15 12 27 27 27c16 0 28 -12 28 -27v-598c0 -42 -33 -75 -75 -75c-30 0 -56 18 -68 44l-269 589c-3 7 -10 13 -19 13c-12 0 -21 -9 -21 -21v-598c0 -15 -11 -27 -27 -27c-15 0 -27 12 -27 27v598c0 42 33 75 75 75c30 0 56 -18 68 -44l269 -589
c3 -7 10 -13 19 -13c10 0 18 9 20 21zM161 811c26 24 54 42 83 42c36 0 61 -16 81 -31l3 -2c18 -12 28 -18 41 -18c8 0 24 14 39 26c5 5 12 8 18 8c15 0 28 -14 28 -29c0 -5 -2 -13 -7 -18c-25 -23 -53 -44 -78 -44c-29 0 -57 16 -79 31c-16 11 -29 22 -46 22
c-14 0 -32 -14 -46 -27c-5 -4 -13 -7 -20 -7c-15 0 -27 11 -27 27c0 9 4 14 10 20z" />
    <glyph glyph-name="Ograve" unicode="&#xd2;" horiz-adv-x="616" 
d="M285 700h46c146 0 235 -67 235 -242v-222c0 -141 -84 -236 -235 -236h-46c-150 0 -235 95 -235 236v222c0 175 90 242 235 242zM106 458v-222c0 -106 63 -184 179 -184h46c117 0 180 78 180 184v222c0 135 -68 189 -180 189h-46c-111 0 -179 -54 -179 -189zM376 752
l-160 74c-7 5 -13 14 -13 24c0 3 0 7 2 11c5 10 13 15 24 15l12 -3l7 -3c48 -23 103 -51 150 -72c10 -5 16 -14 16 -24c0 -2 0 -5 -3 -11c-5 -10 -12 -15 -23 -15c-3 0 -8 1 -12 4z" />
    <glyph glyph-name="Oacute" unicode="&#xd3;" horiz-adv-x="616" 
d="M285 700h46c146 0 235 -67 235 -242v-222c0 -141 -84 -236 -235 -236h-46c-150 0 -235 95 -235 236v222c0 175 90 242 235 242zM106 458v-222c0 -106 63 -184 179 -184h46c117 0 180 78 180 184v222c0 135 -68 189 -180 189h-46c-111 0 -179 -54 -179 -189zM400 826
l-159 -74c-4 -3 -9 -4 -13 -4c-11 0 -17 5 -23 17c-2 4 -2 7 -2 9c0 10 6 19 15 24l160 76c4 2 7 2 9 2c11 0 20 -5 25 -15c2 -4 2 -8 2 -11c0 -10 -6 -19 -14 -24z" />
    <glyph glyph-name="Ocircumflex" unicode="&#xd4;" horiz-adv-x="616" 
d="M285 700h46c146 0 235 -67 235 -242v-222c0 -141 -84 -236 -235 -236h-46c-150 0 -235 95 -235 236v222c0 175 90 242 235 242zM106 458v-222c0 -106 63 -184 179 -184h46c117 0 180 78 180 184v222c0 135 -68 189 -180 189h-46c-111 0 -179 -54 -179 -189zM343 878
l81 -88c3 -5 6 -9 6 -16c0 -14 -11 -25 -24 -25c-8 0 -16 3 -20 9l-77 82l-79 -83c-5 -5 -11 -8 -18 -8c-14 0 -25 11 -25 25c0 5 2 12 6 16l77 86c9 10 23 19 39 19c13 0 26 -8 34 -17z" />
    <glyph glyph-name="Otilde" unicode="&#xd5;" horiz-adv-x="616" 
d="M285 700h46c146 0 235 -67 235 -242v-222c0 -141 -84 -236 -235 -236h-46c-150 0 -235 95 -235 236v222c0 175 90 242 235 242zM106 458v-222c0 -106 63 -184 179 -184h46c117 0 180 78 180 184v222c0 135 -68 189 -180 189h-46c-111 0 -179 -54 -179 -189zM167 810
c26 24 54 42 83 42c36 0 61 -16 81 -31l3 -2l5 -4c13 -8 23 -14 36 -14c8 0 24 14 39 26c5 5 12 8 18 8c15 0 28 -14 28 -29c0 -5 -3 -13 -7 -18c-25 -23 -53 -44 -78 -44c-32 0 -75 31 -79 31c-15 12 -29 22 -47 22c-13 0 -31 -14 -45 -27c-5 -4 -13 -7 -20 -7
c-15 0 -27 11 -27 27c0 9 4 14 10 20z" />
    <glyph glyph-name="Odieresis" unicode="&#xd6;" horiz-adv-x="616" 
d="M285 700h46c146 0 235 -67 235 -242v-222c0 -141 -84 -236 -235 -236h-46c-150 0 -235 95 -235 236v222c0 175 90 242 235 242zM106 458v-222c0 -106 63 -184 179 -184h46c117 0 180 78 180 184v222c0 135 -68 189 -180 189h-46c-111 0 -179 -54 -179 -189zM199 775v27
c0 15 11 27 26 27c16 0 27 -12 27 -27v-27c0 -15 -11 -26 -27 -26c-15 0 -26 11 -26 26zM364 775v27c0 15 11 27 26 27c16 0 28 -12 28 -27v-27c0 -15 -12 -26 -28 -26c-15 0 -26 11 -26 26z" />
    <glyph glyph-name="Oslash" unicode="&#xd8;" horiz-adv-x="616" 
d="M285 700h46c43 0 78 -5 110 -18l37 83c6 12 14 19 25 19c3 0 8 -2 11 -3c11 -4 16 -14 16 -25c0 -4 -2 -8 -3 -11l-39 -89c48 -39 78 -104 78 -198v-222c0 -141 -84 -236 -235 -236h-46c-30 0 -60 3 -85 12l-34 -79c-4 -11 -14 -17 -24 -17c-3 0 -8 1 -11 3
c-11 4 -17 13 -17 26c0 2 1 6 3 11l33 77c-66 40 -100 112 -100 203v222c0 175 90 242 235 242zM106 458v-222c0 -64 24 -119 68 -151l245 548c-26 10 -54 14 -88 14h-46c-111 0 -179 -54 -179 -189zM285 52h46c117 0 180 78 180 184v222c0 65 -19 114 -47 144l-242 -542
c19 -5 40 -8 63 -8z" />
    <glyph glyph-name="oe" unicode="&#x153;" horiz-adv-x="823" 
d="M732 228h-286c2 -116 31 -178 131 -178h153c17 0 27 -11 27 -25s-10 -25 -25 -25h-156c-80 0 -127 25 -154 76c-30 -49 -84 -82 -144 -82h-61c-94 0 -167 70 -167 176v152c0 106 71 186 167 186h61c63 0 112 -30 141 -84c31 59 90 85 161 85c124 0 193 -67 193 -194v-47
c0 -23 -18 -40 -41 -40zM217 44h61c65 0 114 57 114 126v152c0 70 -49 136 -114 136h-61c-65 0 -114 -66 -114 -136v-152c0 -69 49 -126 114 -126zM446 278h274v37c0 94 -46 144 -140 144c-84 0 -134 -57 -134 -144v-37z" />
    <glyph glyph-name="Ugrave" unicode="&#xd9;" horiz-adv-x="579" 
d="M50 201v473c0 13 12 26 26 26s26 -13 26 -26v-473c0 -99 63 -154 131 -154h122c78 0 122 62 122 154v471c0 16 12 28 26 28s26 -13 26 -26v-473c0 -124 -66 -207 -176 -207h-119c-99 0 -184 71 -184 207zM357 753l-159 74c-8 5 -14 14 -14 24c0 3 0 7 2 11
c5 10 14 15 24 15l12 -3c50 -24 108 -53 157 -75c10 -5 16 -14 16 -24c0 -2 0 -5 -3 -11c-5 -10 -12 -15 -22 -15c-4 0 -9 1 -13 4z" />
    <glyph glyph-name="Uacute" unicode="&#xda;" horiz-adv-x="579" 
d="M50 201v473c0 13 12 26 26 26s26 -13 26 -26v-473c0 -99 63 -154 131 -154h122c78 0 122 62 122 154v471c0 16 12 28 26 28s26 -13 26 -26v-473c0 -124 -66 -207 -176 -207h-119c-99 0 -184 71 -184 207zM381 828l-159 -74c-4 -3 -9 -4 -13 -4c-10 0 -17 5 -23 17
c-2 4 -2 7 -2 9c0 10 6 19 16 24l159 76c4 2 7 2 10 2c10 0 19 -5 24 -15c2 -4 2 -8 2 -11c0 -10 -6 -19 -14 -24z" />
    <glyph glyph-name="Ucircumflex" unicode="&#xdb;" horiz-adv-x="579" 
d="M50 201v473c0 13 12 26 26 26s26 -13 26 -26v-473c0 -99 63 -154 131 -154h122c78 0 122 62 122 154v471c0 16 12 28 26 28s26 -13 26 -26v-473c0 -124 -66 -207 -176 -207h-119c-99 0 -184 71 -184 207zM324 877l82 -88c3 -5 6 -9 6 -16c0 -14 -12 -25 -25 -25
c-8 0 -15 3 -20 9l-77 82c-19 -21 -79 -83 -79 -83c-5 -5 -10 -8 -17 -8c-15 0 -26 11 -26 25c0 5 2 12 6 16l77 86c9 10 23 19 39 19c14 0 26 -8 34 -17z" />
    <glyph glyph-name="Udieresis" unicode="&#xdc;" horiz-adv-x="579" 
d="M50 201v473c0 13 12 26 26 26s26 -13 26 -26v-473c0 -99 63 -154 131 -154h122c78 0 122 62 122 154v471c0 16 12 28 26 28s26 -13 26 -26v-473c0 -124 -66 -207 -176 -207h-119c-99 0 -184 71 -184 207zM180 777v27c0 15 11 27 26 27c16 0 28 -12 28 -27v-27
c0 -15 -12 -26 -28 -26c-15 0 -26 11 -26 26zM345 777v27c0 15 11 27 27 27c15 0 27 -12 27 -27v-27c0 -15 -12 -26 -27 -26c-16 0 -27 11 -27 26z" />
    <glyph glyph-name="dieresis" unicode="&#xa8;" horiz-adv-x="317" 
d="M50 639v26c0 16 11 27 26 27c16 0 27 -11 27 -27v-26c0 -15 -11 -26 -27 -26c-15 0 -26 11 -26 26zM214 639v26c0 16 10 27 26 27c15 0 27 -11 27 -27v-26c0 -15 -12 -26 -27 -26c-16 0 -26 11 -26 26z" />
    <glyph glyph-name="ydieresis" unicode="&#xff;" horiz-adv-x="483" 
d="M247 56l136 426c4 9 13 18 24 18c15 0 26 -11 26 -26c0 -2 0 -4 -1 -7l-212 -671c-3 -9 -11 -17 -24 -17c-14 0 -25 10 -25 25c0 3 0 6 1 8l59 189c-21 3 -41 19 -47 39l-133 428c0 1 -1 5 -1 6c0 15 11 26 25 26c12 0 21 -8 25 -17l133 -426c1 -3 4 -5 6 -5c5 0 8 2 8 4
zM134 574v26c0 15 10 27 26 27c15 0 27 -12 27 -27v-26c0 -16 -12 -26 -27 -26c-16 0 -26 10 -26 26zM297 574v26c0 15 11 27 26 27c16 0 27 -12 27 -27v-26c0 -16 -11 -26 -27 -26c-15 0 -26 10 -26 26z" />
    <glyph glyph-name="divide" unicode="&#xf7;" horiz-adv-x="442" 
d="M366 322h-290c-15 2 -26 12 -26 27c0 13 11 26 27 26h289c15 0 26 -12 26 -27s-11 -26 -26 -26zM192 493v39c0 15 12 29 29 29c15 0 29 -14 29 -29v-37c0 -18 -14 -31 -29 -31c-17 0 -29 13 -29 29zM192 162v39c0 15 12 29 29 29c15 0 29 -14 29 -29v-37
c0 -18 -14 -30 -29 -30c-17 0 -29 12 -29 28z" />
    <glyph glyph-name="oslash" unicode="&#xf8;" horiz-adv-x="494" 
d="M159 4l-34 -77c-4 -11 -13 -16 -24 -16c-3 0 -8 1 -10 2c-11 4 -17 13 -17 25c0 4 2 10 4 16l35 76c-38 31 -63 81 -63 140v152c0 106 70 186 167 186h61c16 0 29 -2 44 -7l31 70c6 12 14 18 25 18c3 0 8 -2 11 -2c10 -4 16 -14 16 -25c0 -3 -2 -8 -3 -11
c-10 -24 -22 -48 -33 -73c48 -33 75 -89 75 -156v-152c0 -106 -72 -176 -166 -176h-61c-20 0 -40 4 -58 10zM217 44h61c64 0 114 57 114 126v152c0 42 -15 80 -44 106l-168 -378c11 -4 23 -6 37 -6zM278 458h-61c-65 0 -114 -66 -114 -136v-152c0 -35 12 -66 32 -89l165 374
c-7 2 -14 3 -22 3z" />
    <glyph glyph-name="ae" unicode="&#xe6;" horiz-adv-x="798" 
d="M708 228h-287c2 -116 32 -178 132 -178h153c16 0 27 -11 27 -25s-11 -25 -25 -25h-156c-59 0 -102 14 -131 40c0 -23 -17 -40 -40 -40h-187c-79 0 -144 63 -144 143c0 79 65 144 144 144h174v73c0 55 -30 99 -83 99h-179c-16 0 -27 10 -27 25c0 14 11 25 25 25h181
c52 0 96 -31 119 -72c34 49 87 72 152 72c124 0 192 -67 192 -194v-47c0 -23 -17 -40 -40 -40zM194 52h174v184h-174c-51 0 -92 -42 -92 -93c0 -50 41 -91 92 -91zM421 278h274v37c0 94 -46 144 -139 144c-85 0 -135 -57 -135 -144v-37z" />
    <glyph glyph-name="bar" unicode="|" horiz-adv-x="154" 
d="M50 -30v695c0 16 11 27 27 27c15 0 27 -11 27 -29v-691c0 -17 -12 -29 -27 -29c-16 0 -27 12 -27 27z" />
    <glyph glyph-name="quoteright" unicode="&#x2019;" horiz-adv-x="193" 
d="M65 567c9 4 24 13 24 29v68c0 15 11 28 27 28c14 0 27 -13 27 -28v-68c0 -35 -27 -64 -60 -73c-6 -2 -8 -2 -10 -2c-13 0 -23 10 -23 23c0 11 7 20 15 23z" />
    <glyph glyph-name="quoteleft" unicode="&#x2018;" horiz-adv-x="193" 
d="M129 646c-10 -4 -24 -12 -24 -29v-68c0 -14 -12 -28 -27 -28c-14 0 -28 14 -28 28v68c0 36 27 65 61 73c5 2 7 2 9 2c14 0 23 -9 23 -23c0 -10 -6 -20 -14 -23z" />
    <glyph glyph-name="Ydieresis" unicode="&#x178;" horiz-adv-x="569" 
d="M516 659l-203 -340v-292c0 -15 -11 -27 -27 -27s-27 12 -27 27v292l-205 338c-2 6 -4 12 -4 16c0 15 11 27 27 27c10 0 18 -5 23 -13l186 -314l183 313c5 8 12 14 23 14c16 0 27 -12 27 -27c0 -5 0 -9 -3 -14zM176 774v27c0 15 11 27 26 27c16 0 28 -12 28 -27v-27
c0 -15 -12 -26 -28 -26c-15 0 -26 11 -26 26zM341 774v27c0 15 11 27 27 27c15 0 27 -12 27 -27v-27c0 -15 -12 -26 -27 -26c-16 0 -27 11 -27 26z" />
    <glyph glyph-name="copyright" unicode="&#xa9;" horiz-adv-x="611" 
d="M50 427c0 147 108 265 255 265s256 -118 256 -265s-109 -265 -256 -265s-255 118 -255 265zM100 427c0 -118 87 -215 205 -215s206 97 206 215s-88 215 -206 215s-205 -97 -205 -215zM191 426c0 93 20 158 114 158h55c14 0 25 -11 25 -25c0 -15 -11 -25 -25 -25h-55
c-59 0 -64 -40 -64 -108c0 -67 10 -106 64 -106h55c14 0 25 -10 25 -25c0 -14 -11 -25 -25 -25h-55c-92 0 -114 63 -114 156z" />
    <glyph glyph-name="trademark" unicode="&#x2122;" horiz-adv-x="786" 
d="M174 311v329h-99c-13 0 -25 11 -25 25c0 13 12 26 25 26h247c15 0 27 -13 27 -26c0 -14 -13 -25 -26 -25h-98v-329c0 -13 -13 -25 -25 -25c-13 0 -26 12 -26 25zM373 311v330c0 26 22 50 50 50c22 0 44 -14 50 -35c28 -101 50 -170 79 -271l85 272c6 19 29 34 48 34
c27 0 51 -24 51 -50v-330c0 -13 -13 -25 -26 -25s-26 12 -26 25v323l-104 -328c-4 -11 -13 -20 -29 -20c-15 0 -25 10 -31 23l-96 321v-319c0 -13 -13 -25 -26 -25s-25 12 -25 25z" />
    <glyph glyph-name="brokenbar" unicode="&#xa6;" horiz-adv-x="153" 
d="M103 714v-309c-2 -15 -12 -26 -27 -26c-14 0 -26 11 -26 27v308c0 16 11 26 27 26c15 0 26 -10 26 -26zM103 278v-310c-2 -14 -12 -26 -27 -26c-14 0 -26 12 -26 27v309c0 15 11 26 27 26c15 0 26 -11 26 -26z" />
    <glyph glyph-name="plusminus" unicode="&#xb1;" horiz-adv-x="530" 
d="M288 316v-111c-2 -15 -12 -26 -27 -26c-13 0 -26 11 -26 27v110h-160c-14 2 -25 12 -25 27c0 14 11 26 26 26h159v108c2 14 14 25 28 25s25 -10 25 -24v-109h166c16 0 26 -11 26 -27c0 -15 -10 -26 -26 -26h-166zM454 77h-379c-14 2 -25 11 -25 27c0 13 11 26 26 26h378
c16 0 26 -12 26 -27c0 -16 -10 -26 -26 -26z" />
    <glyph glyph-name="degree" unicode="&#xb0;" horiz-adv-x="381" 
d="M50 552c0 84 57 140 140 140c84 0 141 -56 141 -140s-57 -140 -141 -140c-83 0 -140 56 -140 140zM102 552c0 -54 35 -90 88 -90c54 0 91 36 91 90s-37 90 -91 90c-53 0 -88 -36 -88 -90z" />
    <glyph glyph-name="Zcaron" unicode="&#x17d;" horiz-adv-x="546" 
d="M50 674c0 13 12 26 26 26h354c37 0 66 -29 66 -66c0 -14 -6 -28 -13 -39l-379 -522c-2 -2 -2 -5 -2 -7c0 -7 6 -12 14 -12h351c17 0 29 -11 29 -27c0 -15 -12 -27 -27 -27h-353c-37 0 -66 29 -66 66c0 15 4 27 12 39l379 522c2 2 2 4 2 7c0 8 -5 13 -13 13h-354
c-14 0 -26 13 -26 27zM388 855l-81 -86c-8 -11 -21 -19 -35 -19c-15 0 -30 9 -39 20c-5 5 -76 85 -76 85c-4 4 -6 11 -6 16c0 14 10 25 25 25c7 0 13 -3 18 -8l78 -90l77 88c5 6 13 10 20 10c13 0 25 -11 25 -25c0 -7 -3 -12 -6 -16z" />
    <glyph glyph-name="germandbls" unicode="&#xdf;" horiz-adv-x="575" 
d="M153 26c0 13 12 26 26 26h154c77 0 140 62 140 139s-63 141 -140 141h-17c-13 0 -26 12 -26 26c0 13 13 26 26 26c71 0 130 57 130 128s-58 128 -129 128h-34c-111 0 -178 -53 -178 -187v-424c0 -17 -14 -29 -28 -29c-15 0 -27 12 -27 27v426c0 173 88 239 233 239h34
c100 0 181 -80 181 -180c0 -65 -29 -117 -79 -150c63 -31 106 -96 106 -171c0 -106 -86 -191 -192 -191h-152c-17 0 -28 12 -28 26z" />
    <glyph glyph-name="Thorn" unicode="&#xde;" horiz-adv-x="565" 
d="M50 27v646c0 15 11 27 27 27s27 -12 27 -27v-92h214c125 0 197 -58 197 -169v-94c0 -109 -61 -189 -197 -189h-214v-102c0 -15 -11 -27 -27 -27s-27 12 -27 27zM461 318v93c0 77 -51 118 -143 118h-214v-347h214c98 0 143 58 143 136z" />
    <glyph glyph-name="guillemotleft" unicode="&#xab;" horiz-adv-x="478" 
d="M189 135c-1 0 -94 81 -121 101c-10 8 -18 21 -18 34c0 16 9 30 19 39l121 93c4 3 10 5 15 5c14 0 25 -11 25 -25c0 -7 -4 -14 -9 -19l-125 -93l124 -97c6 -5 10 -12 10 -20c0 -13 -11 -24 -25 -24c-7 0 -12 3 -16 6zM387 135c0 0 -94 81 -121 101c-10 8 -18 21 -18 34
c0 16 9 30 19 39l121 93c4 3 10 5 15 5c14 0 25 -11 25 -25c0 -7 -4 -14 -9 -19l-125 -93l124 -97c6 -5 10 -12 10 -20c0 -13 -11 -24 -25 -24c-7 0 -12 3 -16 6z" />
    <glyph glyph-name="cedilla" unicode="&#xb8;" horiz-adv-x="220" 
d="M118 -93c0 15 -1 20 -10 21h-4c-21 0 -36 15 -36 36v65h51v-55c38 -4 51 -21 51 -67c0 -54 -15 -71 -69 -71h-26c-15 0 -25 9 -25 23c0 13 10 23 23 23h27c17 0 18 5 18 25z" />
    <glyph glyph-name="numbersign" unicode="#" horiz-adv-x="601" 
d="M411 483l39 184c4 13 18 25 31 25c14 0 23 -10 23 -25v-5l-39 -179h57c18 0 29 -12 29 -27c0 -16 -11 -27 -27 -27h-69c-14 -68 -29 -125 -43 -194h110c18 0 29 -12 29 -27c0 -16 -11 -27 -27 -27h-123l-33 -154c-2 -15 -17 -27 -30 -27c-15 0 -23 10 -23 23v6l31 152
h-161l-33 -154c-3 -15 -17 -27 -31 -27s-23 10 -23 23v6l32 152h-53c-15 0 -27 11 -27 27c0 15 12 27 29 27h62c14 68 27 125 43 194h-107c-15 0 -27 11 -27 27c0 15 12 27 29 27h115l40 184c4 13 17 25 31 25s23 -10 23 -25v-5l-40 -179h163zM239 429l-44 -194h162
c14 68 28 125 43 194h-161z" />
    <glyph glyph-name="Eth" unicode="&#xd0;" horiz-adv-x="737" 
d="M50 341c0 14 13 26 26 26h136v288c0 26 20 45 45 45h195c145 0 235 -67 235 -242v-222c0 -141 -85 -236 -235 -236h-195c-25 0 -45 19 -45 45v270h-134c-16 0 -28 13 -28 26zM631 236v222c0 135 -68 189 -179 189h-185v-280h202c17 0 28 -12 28 -26
c0 -13 -12 -26 -26 -26h-204v-263h185c116 0 179 78 179 184z" />
    <glyph glyph-name="section" unicode="&#xa7;" horiz-adv-x="469" 
d="M65 -76c0 14 11 25 25 25h141c81 0 133 23 133 94c0 48 -39 78 -108 87l-43 5c-102 11 -163 43 -163 134c0 53 24 88 60 107c-39 20 -60 54 -60 108c0 100 79 129 170 129h153c16 0 27 -10 27 -25c0 -14 -11 -25 -25 -25h-155c-65 0 -115 -17 -115 -77
c0 -56 37 -75 122 -86l38 -5c95 -12 154 -54 154 -136c0 -54 -20 -91 -51 -114c32 -23 51 -56 51 -101c0 -111 -77 -145 -188 -145h-141c-14 0 -25 11 -25 25zM364 258c0 48 -39 78 -108 86l-43 5c-62 -1 -108 -20 -108 -78c0 -56 37 -75 122 -85l38 -5c17 -2 30 -5 42 -8
c37 13 57 39 57 85z" />
    <glyph glyph-name="ccedilla" unicode="&#xe7;" horiz-adv-x="433" 
d="M209 -72h-5c-21 0 -36 15 -36 36v46c-78 24 -118 90 -118 201v94c0 134 63 204 195 204h113c15 0 25 -11 25 -25c0 -15 -10 -25 -25 -25h-113c-100 0 -143 -56 -143 -154v-95c0 -103 48 -160 143 -160h113c15 0 25 -11 25 -25s-10 -25 -25 -25h-139v-26
c38 -4 51 -21 51 -67c0 -54 -15 -71 -69 -71h-25c-16 0 -25 9 -25 23c0 13 9 23 23 23h27c16 0 17 5 17 25c0 15 -1 20 -9 21z" />
    <glyph glyph-name="Ccedilla" unicode="&#xc7;" horiz-adv-x="533" 
d="M249 -73h-5c-21 0 -37 16 -37 37v46c-104 26 -157 110 -157 226v222c0 175 89 242 235 242h172c14 0 26 -13 26 -26c0 -14 -12 -27 -26 -27h-172c-112 0 -180 -54 -180 -189v-222c0 -106 63 -184 180 -184h170c16 0 28 -12 28 -26c0 -13 -12 -26 -26 -26h-198v-26
c38 -4 51 -22 51 -68c0 -55 -14 -72 -69 -72h-26c-16 0 -25 9 -25 23s9 23 23 23h27c17 0 18 6 18 26c0 15 -1 20 -9 21z" />
    <glyph glyph-name="mu" unicode="&#xb5;" horiz-adv-x="478" 
d="M50 -213v695c0 13 12 27 27 27s27 -14 27 -27v-321c0 -67 49 -111 104 -111h167v430c0 15 12 29 27 29s26 -14 26 -27v-440c0 -22 -17 -42 -42 -42h-179c-38 0 -75 12 -103 37v-249c0 -17 -12 -28 -27 -28s-27 11 -27 27z" />
    <glyph glyph-name="mu" unicode="&#x3bc;" horiz-adv-x="478" 
d="M50 -213v695c0 13 12 27 27 27s27 -14 27 -27v-321c0 -67 49 -111 104 -111h167v430c0 15 12 29 27 29s26 -14 26 -27v-440c0 -22 -17 -42 -42 -42h-179c-38 0 -75 12 -103 37v-249c0 -17 -12 -28 -27 -28s-27 11 -27 27z" />
    <glyph glyph-name="guillemotright" unicode="&#xbb;" horiz-adv-x="478" 
d="M289 135c-5 -3 -9 -6 -16 -6c-14 0 -25 11 -25 24c0 8 4 15 10 20l114 96l-115 94c-5 5 -9 12 -9 19c0 14 11 25 25 25c4 0 11 -2 14 -5l122 -93c10 -9 19 -23 19 -39c0 -13 -8 -26 -18 -34c-27 -20 -121 -101 -121 -101zM91 135c-5 -3 -9 -6 -16 -6c-14 0 -25 11 -25 24
c0 8 4 15 10 20l114 96l-115 94c-5 5 -9 12 -9 19c0 14 11 25 25 25c4 0 11 -2 14 -5l122 -93c10 -9 19 -23 19 -39c0 -13 -8 -26 -18 -34c-27 -20 -121 -101 -121 -101z" />
    <glyph glyph-name="ordmasculine" unicode="&#xba;" horiz-adv-x="370" 
d="M186 660c91 0 134 -37 134 -158c0 -122 -43 -162 -134 -162c-90 0 -136 40 -136 162c0 121 46 158 136 158zM186 392c56 0 79 20 79 110c0 88 -23 105 -79 105c-57 0 -81 -17 -81 -105c0 -90 24 -110 81 -110z" />
    <glyph glyph-name="thorn" unicode="&#xfe;" horiz-adv-x="476" 
d="M50 -194v887c0 16 11 27 26 27s27 -11 27 -27v-184h164c117 0 159 -116 159 -189v-154c0 -105 -73 -166 -157 -166h-166v-194c0 -16 -12 -27 -27 -27c-14 0 -26 11 -26 27zM103 456v-406h166c56 0 104 47 104 116v151c0 83 -45 139 -106 139h-164z" />
    <glyph glyph-name="Yacute" unicode="&#xdd;" horiz-adv-x="569" 
d="M516 659l-203 -340v-292c0 -15 -11 -27 -27 -27s-27 12 -27 27v292l-205 338c-2 6 -4 12 -4 16c0 15 11 27 27 27c10 0 18 -5 23 -13l186 -314l183 313c5 8 12 14 23 14c16 0 27 -12 27 -27c0 -5 0 -9 -3 -14zM376 825l-159 -74c-4 -3 -9 -4 -13 -4c-10 0 -17 5 -23 17
c-2 4 -2 6 -2 9c0 10 6 19 16 24l159 76c4 2 7 2 10 2c11 0 19 -5 24 -15c2 -4 2 -8 2 -11c0 -10 -6 -19 -14 -24z" />
    <glyph glyph-name="quotesinglbase" unicode="&#x201a;" horiz-adv-x="193" 
d="M65 -15c9 3 24 12 24 28v69c0 14 11 28 27 28c14 0 27 -14 27 -28v-69c0 -35 -27 -64 -60 -73c-6 -2 -8 -2 -10 -2c-13 0 -23 10 -23 24c0 10 7 20 15 23z" />
    <glyph glyph-name="yen" unicode="&#xa5;" horiz-adv-x="564" 
d="M257 163h-173c-14 2 -25 12 -25 27c0 14 11 26 26 26h172v91h-173c-14 2 -25 11 -25 27c0 13 11 26 26 26h145l-176 290c-2 6 -4 12 -4 15c0 16 11 27 27 27c9 0 18 -5 23 -12l184 -311l180 310c5 8 13 13 23 13c16 0 27 -11 27 -27c0 -4 0 -8 -3 -13l-176 -292h145
c15 0 26 -12 26 -27c0 -16 -11 -26 -26 -26h-170v-91h170c15 0 26 -11 26 -27c0 -15 -11 -26 -26 -26h-170v-136c0 -15 -11 -27 -26 -27c-16 0 -27 12 -27 27v136z" />
    <glyph glyph-name="ordfeminine" unicode="&#xaa;" horiz-adv-x="338" 
d="M145 391h91v87h-91c-24 0 -43 -19 -43 -42c0 -24 19 -45 43 -45zM248 340h-103c-53 0 -95 42 -95 96c0 52 42 94 95 94h91v32c0 26 -13 48 -38 48h-105c-16 0 -26 9 -26 24s10 26 26 26h105c54 0 90 -41 90 -97v-181c0 -22 -17 -42 -40 -42z" />
    <glyph glyph-name="Euro" unicode="&#x20ac;" horiz-adv-x="590" 
d="M111 243h-35c-14 2 -26 12 -26 27c0 14 12 26 27 26h34v81h-35c-14 2 -26 11 -26 27c0 13 12 26 27 27h34c0 173 88 239 232 239h171c13 0 26 -12 26 -26c0 -13 -13 -26 -26 -26h-171c-110 0 -178 -54 -178 -188h276c16 0 26 -12 26 -27c0 -16 -10 -26 -26 -26h-276v-81
h276c16 0 26 -11 26 -27c0 -15 -10 -26 -26 -26h-276v-9c0 -105 63 -182 178 -182h169c16 0 28 -13 28 -26c0 -14 -13 -26 -26 -26h-171c-149 0 -232 94 -232 234v9z" />
    <glyph glyph-name="sterling" unicode="&#xa3;" horiz-adv-x="494" 
d="M50 25c0 14 11 25 25 25h64v310h-40c-16 0 -27 10 -27 25c0 14 11 25 25 25h42v81c0 148 48 182 141 182h98c16 0 27 -11 27 -25s-11 -25 -25 -25h-100c-59 0 -88 -24 -88 -132v-81h148c16 0 27 -11 27 -25c0 -15 -11 -25 -25 -25h-150v-310h225c17 0 27 -11 27 -25
s-10 -25 -25 -25h-344c-14 0 -25 11 -25 25z" />
    <glyph glyph-name="eth" unicode="&#xf0;" horiz-adv-x="536" 
d="M401 542l-86 -85c-6 -6 -13 -8 -18 -8c-6 0 -15 4 -20 9c-3 4 -7 11 -7 18c0 6 3 13 7 18l87 86c-31 23 -69 32 -119 32h-147c-14 0 -26 12 -26 25c0 14 11 26 28 26h145c63 0 119 -16 158 -44l37 37c5 5 12 7 19 7c8 0 14 -2 18 -6c5 -5 9 -12 9 -19s-3 -13 -9 -19
l-36 -36c30 -39 45 -90 45 -159v-195c0 -163 -74 -229 -220 -229c-145 0 -216 80 -216 195v42c0 118 72 175 210 175h170v12c0 49 -10 89 -29 118zM430 360h-168c-105 0 -157 -43 -157 -123v-42c0 -86 48 -143 161 -143c111 0 164 44 164 179v129z" />
    <glyph glyph-name="minus" unicode="&#x2212;" horiz-adv-x="587" 
d="M511 286h-435c-14 1 -26 11 -26 26c0 14 12 26 27 26h434c15 0 26 -11 26 -26c0 -16 -11 -26 -26 -26z" />
    <glyph glyph-name="at" unicode="@" horiz-adv-x="570" 
d="M256 239h91v87h-91c-24 0 -44 -19 -44 -42c0 -24 20 -45 44 -45zM377 3c-28 -9 -60 -12 -92 -12c-142 0 -235 80 -235 239v182c0 174 92 251 235 251c148 0 235 -82 235 -254c0 -115 -71 -221 -155 -221h-109c-53 0 -96 42 -96 96c0 53 43 94 96 94h91v32
c0 27 -13 48 -38 48h-105c-16 0 -26 9 -26 24s10 26 26 26h105c53 0 90 -41 90 -96v-165c43 31 67 89 67 165c0 130 -63 200 -181 200c-117 0 -181 -66 -181 -200v-182c0 -123 72 -187 181 -187c27 0 53 4 74 11c5 2 6 2 8 2c17 0 28 -12 28 -28c0 -11 -8 -22 -18 -25z" />
    <glyph glyph-name="asciicircum" unicode="^" horiz-adv-x="575" 
d="M318 675c25 -34 202 -299 202 -300c3 -5 5 -7 5 -13c0 -16 -10 -26 -24 -26c-10 0 -19 4 -23 11l-196 285l-187 -287c-5 -6 -10 -9 -19 -9c-15 0 -26 10 -26 26c0 3 1 7 2 9l196 302c8 12 21 19 36 19c14 0 27 -5 34 -17z" />
    <glyph glyph-name="braceright" unicode="}" horiz-adv-x="431" 
d="M191 -68v236c0 64 31 115 76 144c-45 27 -76 79 -76 143v235h-116c-15 0 -25 11 -25 25c0 15 10 25 26 25h127c23 0 41 -17 41 -40v-245c0 -69 48 -118 110 -118c16 0 27 -12 27 -25c0 -14 -12 -26 -26 -26c-63 0 -111 -49 -111 -118v-246c0 -23 -18 -40 -41 -40h-128
c-15 0 -25 10 -25 25c0 14 10 25 26 25h115z" />
    <glyph glyph-name="asciitilde" unicode="~" horiz-adv-x="590" 
d="M488 275c0 13 12 26 26 26c13 0 26 -13 26 -26c0 -78 -66 -143 -144 -143c-53 0 -100 30 -125 72c-15 27 -45 45 -78 45c-50 0 -91 -41 -91 -91c0 -14 -12 -26 -26 -26c-13 0 -26 12 -26 26c1 79 65 143 143 143c52 0 99 -29 124 -71c16 -28 46 -46 79 -46
c49 0 91 40 92 91z" />
    <glyph glyph-name="cent" unicode="&#xa2;" horiz-adv-x="433" 
d="M272 561v-52h86c15 0 25 -11 25 -25c0 -15 -10 -25 -25 -25h-86v-409h86c15 0 25 -11 25 -25s-10 -25 -25 -25h-86v-52c0 -15 -12 -27 -27 -27c-16 0 -27 12 -27 29v50c-116 8 -168 75 -168 211v94c0 123 57 191 168 202v52c0 17 11 28 27 28c15 0 27 -11 27 -26z
M102 210c0 -94 39 -148 116 -159v406c-81 -10 -116 -64 -116 -152v-95z" />
    <glyph glyph-name="bullet" unicode="&#x2022;" horiz-adv-x="321" 
d="M50 311c0 59 48 110 110 110c60 0 111 -51 111 -110c0 -62 -51 -110 -111 -110c-62 0 -110 48 -110 110z" />
    <glyph glyph-name="paragraph" unicode="&#xb6;" horiz-adv-x="567" 
d="M311 565v-696c0 -15 -12 -27 -26 -27c-15 0 -26 12 -26 27v392h-52c-84 0 -157 61 -157 167c0 77 42 191 159 191h279c18 0 29 -11 29 -27c0 -15 -11 -27 -27 -27h-55v-694c0 -17 -12 -29 -27 -29c-16 0 -27 12 -27 27v696h-70z" />
    <glyph glyph-name="questiondown" unicode="&#xbf;" horiz-adv-x="456" 
d="M284 315v-24c0 -54 -24 -79 -59 -111l-63 -58c-38 -35 -56 -73 -56 -110c0 -77 46 -119 137 -119h135c17 0 28 -10 28 -26c0 -13 -11 -26 -26 -26h-137c-121 0 -193 58 -193 171c0 59 26 102 76 148l62 55c26 24 44 49 44 76v22c0 18 11 28 26 28c16 0 26 -10 26 -26z
M286 506v-42c0 -14 -13 -27 -29 -27c-14 0 -27 13 -27 27v40c0 17 13 30 27 30c16 0 29 -14 29 -28z" />
    <glyph glyph-name="exclamdown" unicode="&#xa1;" horiz-adv-x="153" 
d="M50 -135v447c0 16 10 27 26 27c15 0 27 -11 27 -27v-447c0 -15 -12 -26 -27 -26c-16 0 -26 11 -26 26zM50 462v43c0 15 10 27 26 27c15 0 27 -12 27 -27v-43c0 -16 -12 -26 -27 -26c-16 0 -26 10 -26 26z" />
    <glyph glyph-name="florin" unicode="&#x192;" horiz-adv-x="475" 
d="M150 475c0 14 11 25 25 25h43c11 113 69 171 176 190c19 0 30 -10 30 -25c0 -13 -9 -22 -20 -24c-78 -13 -119 -60 -132 -141h128c14 0 25 -11 25 -25s-11 -25 -25 -25h-130v-423c0 -120 -81 -187 -195 -187c-14 0 -25 11 -25 25c0 15 11 25 25 25c92 0 142 54 142 151
v409h-42c-14 0 -25 11 -25 25z" />
    <glyph glyph-name="ellipsis" unicode="&#x2026;" horiz-adv-x="428" 
d="M50 29v38c0 16 12 29 28 29s29 -13 29 -29v-36c0 -19 -13 -31 -29 -31s-28 12 -28 29zM185 29v38c0 16 13 29 29 29c15 0 29 -13 29 -29v-36c0 -19 -14 -31 -29 -31c-16 0 -29 12 -29 29zM321 29v38c0 16 12 29 29 29c15 0 28 -13 28 -29v-36c0 -19 -13 -31 -28 -31
c-17 0 -29 12 -29 29z" />
    <glyph glyph-name="emdash" unicode="&#x2014;" horiz-adv-x="638" 
d="M562 244h-486c-15 2 -26 12 -26 27c0 14 11 26 27 26h485c15 0 26 -11 26 -27c0 -15 -11 -26 -26 -26z" />
    <glyph glyph-name="quotedblleft" unicode="&#x201c;" horiz-adv-x="293" 
d="M129 646c-10 -4 -24 -12 -24 -29v-68c0 -14 -12 -28 -27 -28c-14 0 -28 14 -28 28v68c0 36 27 65 61 73c5 2 7 2 9 2c14 0 23 -9 23 -23c0 -10 -6 -20 -14 -23zM229 646c-10 -4 -24 -12 -24 -29v-68c0 -14 -12 -28 -27 -28c-14 0 -28 14 -28 28v68c0 36 27 65 61 73
c5 2 7 2 9 2c14 0 23 -9 23 -23c0 -10 -6 -20 -14 -23z" />
    <glyph glyph-name="quotedblright" unicode="&#x201d;" horiz-adv-x="293" 
d="M165 567c9 4 24 13 24 29v68c0 15 11 28 27 28c14 0 27 -13 27 -28v-68c0 -35 -27 -64 -60 -73c-6 -2 -8 -2 -10 -2c-13 0 -23 10 -23 23c0 11 7 20 15 23zM65 567c9 4 24 13 24 29v68c0 15 11 28 27 28c14 0 27 -13 27 -28v-68c0 -35 -27 -64 -60 -73
c-6 -2 -8 -2 -10 -2c-13 0 -23 10 -23 23c0 11 7 20 15 23z" />
    <glyph glyph-name="guilsinglleft" unicode="&#x2039;" horiz-adv-x="280" 
d="M189 135c-1 0 -94 81 -121 101c-10 8 -18 21 -18 34c0 16 9 30 19 39l121 93c4 3 10 5 15 5c14 0 25 -11 25 -25c0 -7 -4 -14 -9 -19l-125 -93l124 -97c6 -5 10 -12 10 -20c0 -13 -11 -24 -25 -24c-7 0 -12 3 -16 6z" />
    <glyph glyph-name="guilsinglright" unicode="&#x203a;" horiz-adv-x="280" 
d="M91 135c-5 -3 -9 -6 -16 -6c-14 0 -25 11 -25 24c0 8 4 15 10 20l114 96l-115 94c-5 5 -9 12 -9 19c0 14 11 25 25 25c4 0 11 -2 14 -5l122 -93c10 -9 19 -23 19 -39c0 -13 -8 -26 -18 -34c-27 -20 -121 -101 -121 -101z" />
    <glyph glyph-name="fraction" unicode="&#x2044;" horiz-adv-x="437" 
d="M384 655l-283 -639c-5 -7 -15 -16 -24 -16c-3 0 -8 1 -11 3c-11 4 -16 12 -16 25c0 4 2 9 3 15l282 632c6 12 15 18 25 18c3 0 8 -2 11 -3c10 -3 16 -13 16 -24c0 -4 -2 -8 -3 -11z" />
    <glyph glyph-name="fi" unicode="&#xfb01;" horiz-adv-x="522" 
d="M50 475c0 14 11 25 25 25h44c10 113 68 171 176 190c19 0 29 -10 29 -25c0 -13 -8 -22 -20 -24c-78 -13 -119 -60 -131 -141h127c15 0 25 -11 25 -25s-10 -25 -25 -25h-129v-423c0 -16 -15 -27 -28 -27c-15 0 -25 11 -25 25v425h-43c-14 0 -25 11 -25 25zM419 26v447
c0 15 10 27 26 27c15 0 27 -12 27 -27v-447c0 -15 -12 -26 -27 -26c-16 0 -26 11 -26 26zM419 646v19c0 16 10 27 26 27c15 0 27 -11 27 -27v-19c0 -15 -12 -26 -27 -26c-16 0 -26 11 -26 26z" />
    <glyph glyph-name="fl" unicode="&#xfb02;" horiz-adv-x="527" 
d="M50 475c0 14 11 25 25 25h44c10 113 68 171 176 190c19 0 30 -10 30 -25c0 -13 -9 -22 -21 -24c-78 -13 -119 -60 -131 -141h127c15 0 25 -11 25 -25s-10 -25 -25 -25h-129v-423c0 -16 -15 -27 -28 -27c-15 0 -25 11 -25 25v425h-43c-14 0 -25 11 -25 25zM424 27v638
c0 16 11 27 26 27c16 0 27 -11 27 -29v-634c0 -17 -11 -29 -27 -29c-15 0 -26 12 -26 27z" />
    <glyph glyph-name="periodcentered" unicode="&#xb7;" horiz-adv-x="157" 
d="M50 291v39c0 15 12 29 29 29c15 0 28 -14 28 -29v-37c0 -18 -13 -31 -28 -31c-17 0 -29 13 -29 29z" />
    <glyph glyph-name="quotedblbase" unicode="&#x201e;" horiz-adv-x="293" 
d="M165 -15c9 3 24 12 24 28v69c0 14 11 28 27 28c14 0 27 -14 27 -28v-69c0 -35 -27 -64 -60 -73c-6 -2 -8 -2 -10 -2c-13 0 -23 10 -23 24c0 10 7 20 15 23zM65 -15c9 3 24 12 24 28v69c0 14 11 28 27 28c14 0 27 -14 27 -28v-69c0 -35 -27 -64 -60 -73
c-6 -2 -8 -2 -10 -2c-13 0 -23 10 -23 24c0 10 7 20 15 23z" />
    <glyph glyph-name="perthousand" unicode="&#x2030;" horiz-adv-x="850" 
d="M178 694c75 0 111 -39 111 -138s-37 -143 -111 -143c-75 0 -112 44 -112 144c0 98 36 137 112 137zM119 557c0 -60 13 -94 59 -94c45 0 58 33 58 93c0 58 -13 88 -58 88s-59 -30 -59 -87zM448 281c75 0 111 -40 111 -139s-37 -142 -111 -142c-75 0 -112 43 -112 143
c0 98 36 138 112 138zM389 143c0 -59 14 -93 59 -93s58 33 58 92s-13 89 -58 89c-44 0 -59 -30 -59 -88zM564 653l-465 -641c-5 -9 -13 -12 -22 -12c-6 0 -12 2 -16 4c-8 5 -11 12 -11 22c0 5 2 12 5 18l464 640c6 7 15 11 24 11c5 0 10 -1 15 -5c8 -5 11 -13 11 -22
c0 -6 -1 -10 -5 -15zM688 281c75 0 112 -40 112 -139s-38 -142 -112 -142c-75 0 -111 43 -111 143c0 98 35 138 111 138zM630 143c0 -59 13 -93 58 -93s59 33 59 92s-14 89 -59 89c-44 0 -58 -30 -58 -88z" />
    <glyph glyph-name="breve" unicode="&#x2d8;" horiz-adv-x="349" 
d="M50 667c0 13 9 24 23 24c12 0 24 -11 24 -24c0 -28 21 -50 49 -50h58c26 0 47 21 48 48c0 16 9 26 23 26c12 0 24 -11 24 -24c0 -54 -43 -95 -95 -95h-59c-54 0 -95 41 -95 95z" />
    <glyph glyph-name="dotaccent" unicode="&#x2d9;" horiz-adv-x="153" 
d="M50 639v26c0 16 10 27 26 27c15 0 27 -11 27 -27v-26c0 -15 -12 -26 -27 -26c-16 0 -26 11 -26 26z" />
    <glyph glyph-name="hungarumlaut" unicode="&#x2dd;" horiz-adv-x="473" 
d="M245 619l-158 -73c-3 -3 -8 -4 -12 -4c-11 0 -17 5 -23 17c-2 3 -2 6 -2 9c0 10 6 19 15 23l158 75c4 2 7 2 10 2c10 0 19 -5 24 -14c2 -4 2 -8 2 -11c0 -10 -6 -19 -14 -24zM410 619l-158 -73c-4 -3 -9 -4 -13 -4c-10 0 -17 5 -23 17c-2 3 -2 6 -2 9c0 10 6 19 16 23
l157 75c4 2 7 2 10 2c11 0 19 -5 24 -14c2 -4 2 -8 2 -11c0 -10 -6 -19 -13 -24z" />
    <glyph glyph-name="ogonek" unicode="&#x2db;" horiz-adv-x="273" 
d="M115 -27h-4c-8 -1 -9 -6 -9 -21c0 -22 1 -52 17 -52h81c13 0 23 -10 23 -23c0 -14 -10 -23 -25 -23h-80c-54 0 -68 47 -68 98c0 50 13 67 61 67h41c0 -26 -16 -46 -37 -46z" />
    <glyph glyph-name="Lslash" unicode="&#x141;" horiz-adv-x="561" 
d="M125 205l-31 -30c-4 -4 -10 -7 -18 -7c-6 0 -13 2 -18 7c-4 5 -8 13 -8 19s2 14 8 20l67 67v392c0 15 11 27 27 27c15 0 27 -12 27 -27v-339l132 133c5 5 13 7 19 7s12 -2 18 -7c5 -6 8 -13 8 -19s-3 -13 -8 -18l-169 -170v-206h302c18 0 30 -11 30 -27
c0 -15 -12 -27 -28 -27h-314c-25 0 -44 19 -44 45v160z" />
    <glyph glyph-name="lslash" unicode="&#x142;" horiz-adv-x="403" 
d="M141 219l-47 -46c-4 -4 -10 -7 -18 -7c-6 0 -12 2 -17 7s-9 13 -9 19s2 14 8 20l83 81v372c0 16 11 27 27 27c15 0 26 -11 26 -29v-316l115 115c5 4 12 7 18 7s13 -3 18 -7c5 -6 8 -13 8 -19s-3 -13 -8 -18l-151 -152v-244c0 -17 -11 -29 -26 -29c-16 0 -27 12 -27 27
v192z" />
    <glyph glyph-name="onehalf" unicode="&#xbd;" horiz-adv-x="689" 
d="M62 563l78 53c7 3 16 6 21 6c19 0 33 -13 33 -34v-285c0 -16 -11 -27 -27 -27c-13 0 -26 11 -26 26v252c-17 -12 -33 -21 -50 -33c-3 -3 -10 -6 -14 -6c-15 0 -27 13 -27 26c0 8 5 17 12 22zM414 52l117 110c22 21 42 42 42 75v13c0 30 -28 45 -58 45h-81
c-14 0 -26 13 -26 26s12 26 26 26h81c62 0 109 -35 109 -97v-13c0 -53 -24 -81 -56 -112l-78 -73h123c13 0 26 -14 26 -26c0 -14 -14 -26 -26 -26h-179c-16 0 -30 14 -30 30c0 7 5 14 10 22zM453 586l-254 -570c-5 -7 -14 -16 -24 -16c-3 0 -8 1 -10 3c-11 4 -17 12 -17 25
c0 4 2 9 4 15l252 563c6 11 14 18 25 18c3 0 8 -2 11 -3c10 -4 16 -13 16 -24c0 -4 -2 -9 -3 -11z" />
    <glyph glyph-name="onequarter" unicode="&#xbc;" horiz-adv-x="651" 
d="M497 65h-103c-27 0 -47 21 -47 47c0 5 2 13 4 19l79 198c2 9 14 18 25 18c14 0 27 -9 27 -25c0 -2 0 -5 -1 -8l-81 -197h97v58c0 15 12 27 26 27c15 0 27 -13 27 -26v-59h24c15 0 27 -10 27 -26c0 -15 -12 -26 -27 -26h-24v-38c0 -15 -12 -27 -27 -27
c-14 0 -26 12 -26 26v39zM140 616c7 3 15 6 20 6c20 0 34 -13 34 -34v-285c0 -16 -12 -27 -27 -27c-13 0 -26 11 -26 26v252c-17 -12 -34 -21 -50 -33c-4 -3 -11 -6 -14 -6c-16 0 -27 13 -27 26c0 8 5 17 90 75zM453 586l-254 -570c-5 -7 -15 -16 -24 -16c-3 0 -8 1 -11 3
c-10 4 -16 12 -16 25c0 4 2 9 4 15l252 563c5 11 14 18 25 18c2 0 7 -2 10 -3c11 -4 16 -13 16 -24c0 -4 -1 -9 -2 -11z" />
    <glyph glyph-name="onesuperior" unicode="&#xb9;" horiz-adv-x="244" 
d="M61 563l79 53c7 3 15 6 20 6c19 0 34 -13 34 -34v-285c0 -16 -12 -27 -27 -27c-13 0 -26 11 -26 26v252c-17 -12 -34 -21 -50 -33c-4 -3 -11 -6 -14 -6c-16 0 -27 13 -27 26c0 8 4 17 11 22z" />
    <glyph glyph-name="threequarters" unicode="&#xbe;" horiz-adv-x="713" 
d="M89 455c0 12 10 25 26 25h64c23 0 41 17 41 43c0 28 -19 48 -44 48h-99c-15 0 -27 12 -27 27c0 11 12 25 27 25h99c55 0 95 -43 95 -100c0 -29 -11 -54 -30 -70c18 -19 30 -46 30 -77c0 -60 -41 -100 -95 -100h-99c-15 0 -27 11 -27 27c0 10 12 25 27 25h99
c24 0 44 18 44 48s-19 52 -44 52h-60c-17 0 -27 11 -27 27zM458 109c1 1 1 1 1 2zM514 586l-254 -570c-5 -7 -14 -16 -24 -16c-3 0 -8 1 -11 3c-10 4 -16 12 -16 25c0 4 2 9 4 15l252 563c6 11 14 18 25 18c3 0 7 -2 10 -3c11 -4 17 -13 17 -24c0 -4 -2 -9 -3 -11zM559 65
h-103c-27 0 -47 21 -47 47c0 5 2 13 4 19l79 198c2 9 14 18 25 18c14 0 27 -9 27 -25c0 -2 0 -5 -1 -8l-81 -197h97v58c0 15 12 27 26 27c15 0 27 -13 27 -26v-59h24c15 0 27 -10 27 -26c0 -15 -12 -26 -27 -26h-24v-38c0 -15 -12 -27 -27 -27c-14 0 -26 12 -26 26v39z" />
    <glyph glyph-name="threesuperior" unicode="&#xb3;" horiz-adv-x="322" 
d="M89 455c0 12 10 25 26 25h64c23 0 41 17 41 43c0 28 -19 48 -44 48h-99c-15 0 -27 12 -27 27c0 11 12 25 27 25h99c55 0 96 -43 96 -100c0 -29 -12 -54 -31 -70c18 -19 31 -46 31 -77c0 -60 -42 -100 -96 -100h-99c-15 0 -27 11 -27 27c0 10 12 25 27 25h99
c24 0 44 18 44 48s-19 52 -44 52h-60c-17 0 -27 11 -27 27z" />
    <glyph glyph-name="twosuperior" unicode="&#xb2;" horiz-adv-x="334" 
d="M59 327l117 110c23 21 43 42 43 75v13c0 30 -28 45 -58 45h-82c-13 0 -26 13 -26 26s13 26 26 26h82c62 0 109 -35 109 -97v-13c0 -53 -24 -81 -56 -112l-78 -73h122c14 0 26 -14 26 -26c0 -14 -13 -26 -26 -26h-179c-15 0 -29 14 -29 30c0 7 4 14 9 22z" />
    <glyph glyph-name="Scaron" unicode="&#x160;" horiz-adv-x="533" 
d="M50 26c0 14 12 26 26 26h194c104 0 161 44 161 156c0 89 -50 106 -163 128c-120 23 -218 39 -218 188c0 130 84 176 219 176h169c17 0 29 -13 29 -26c0 -14 -13 -27 -27 -27h-171c-103 0 -167 -31 -167 -123c0 -104 69 -118 176 -136c130 -23 205 -56 205 -180
c0 -149 -74 -208 -213 -208h-194c-14 0 -26 13 -26 26zM384 854l-81 -86c-8 -11 -21 -19 -35 -19c-15 0 -30 9 -39 20c-5 5 -76 85 -76 85c-4 4 -6 11 -6 16c0 14 10 25 25 25c7 0 13 -3 18 -8l78 -90l77 88c5 6 13 10 21 10c12 0 24 -11 24 -25c0 -7 -3 -12 -6 -16z" />
    <glyph glyph-name="apple" horiz-adv-x="0" 
 />
    <glyph glyph-name="dagger" unicode="&#x2020;" horiz-adv-x="426" 
d="M187 458h-111c-14 2 -26 11 -26 27c0 13 12 26 27 26h110v154c0 16 12 27 27 27s27 -11 27 -29v-152h109c16 0 26 -12 26 -27c0 -16 -10 -26 -26 -26h-109v-486c0 -17 -12 -29 -27 -29s-27 12 -27 27v488z" />
    <glyph glyph-name="uni00A0" unicode="&#xa0;" horiz-adv-x="300" 
 />
    <glyph glyph-name="notequal" unicode="&#x2260;" horiz-adv-x="587" 
d="M279 225l-92 -209c-5 -7 -15 -16 -24 -16c-3 0 -8 1 -11 3c-11 4 -16 12 -16 25c0 4 2 9 4 15l81 182h-145c-14 2 -26 12 -26 27c0 13 12 26 27 26h166c18 39 32 68 49 109h-216c-14 1 -26 11 -26 26c0 14 12 26 27 26h239l105 236c6 12 15 18 25 18c3 0 8 -2 11 -3
c10 -3 16 -13 16 -24c0 -4 -2 -8 -3 -11l-96 -216h137c15 0 26 -11 26 -27c0 -15 -11 -25 -26 -25h-160c-17 -40 -32 -69 -49 -109h209c15 0 26 -12 26 -27s-11 -26 -26 -26h-232z" />
    <glyph glyph-name="infinity" unicode="&#x221e;" 
 />
    <glyph glyph-name="lessequal" unicode="&#x2264;" horiz-adv-x="457" 
d="M67 298c-11 8 -17 20 -17 35c0 14 7 28 18 35l303 196c2 1 5 2 10 2c15 0 26 -10 26 -26c0 -7 -3 -13 -11 -19l-286 -186l284 -197c8 -4 13 -13 13 -23c0 -14 -11 -24 -26 -24c-6 0 -10 1 -15 5c0 0 -266 178 -299 202zM381 0h-305c-15 2 -26 12 -26 27c0 13 11 26 27 26
h304c15 0 26 -12 26 -27s-11 -26 -26 -26z" />
    <glyph glyph-name="greaterequal" unicode="&#x2265;" horiz-adv-x="457" 
d="M389 298c-33 -25 -299 -202 -300 -202c-5 -3 -7 -5 -13 -5c-16 0 -26 10 -26 24c0 10 5 19 11 22l285 198l-287 186c-6 5 -9 12 -9 19c0 16 10 26 26 26c4 0 7 -1 9 -2l302 -196c12 -7 20 -21 20 -35c0 -15 -6 -27 -18 -35zM381 0h-305c-16 0 -26 11 -26 26s10 27 26 27
h304c15 0 27 -13 27 -26c0 -15 -12 -25 -26 -27z" />
    <glyph glyph-name="partialdiff" unicode="&#x2202;" 
 />
    <glyph glyph-name="summation" unicode="&#x2211;" 
 />
    <glyph glyph-name="product" unicode="&#x220f;" 
 />
    <glyph glyph-name="pi" unicode="&#x3c0;" horiz-adv-x="153" 
d="M50 0v500h53v-500h-53zM50 0v500h53v-500h-53z" />
    <glyph glyph-name="integral" unicode="&#x222b;" 
 />
    <glyph glyph-name="Omega" unicode="&#x3a9;" 
 />
    <glyph glyph-name="Omega" unicode="&#x2126;" 
 />
    <glyph glyph-name="logicalnot" unicode="&#xac;" 
 />
    <glyph glyph-name="radical" unicode="&#x221a;" 
 />
    <glyph glyph-name="approxequal" unicode="&#x2248;" 
 />
    <glyph glyph-name="Delta" unicode="&#x394;" 
 />
    <glyph glyph-name="Delta" unicode="&#x2206;" 
 />
    <glyph glyph-name="lozenge" unicode="&#x25ca;" 
 />
    <glyph glyph-name="multiply" unicode="&#xd7;" horiz-adv-x="459" 
d="M266 251l136 -136c4 -4 6 -11 6 -19c0 -7 -2 -12 -6 -17c-6 -6 -14 -8 -19 -8c-8 0 -14 2 -20 8l-134 134l-135 -134c-5 -4 -11 -7 -19 -7c-7 0 -13 3 -17 7c-6 6 -8 13 -8 19c0 7 2 14 8 19l134 134l-136 136c-5 5 -6 10 -6 16c0 7 3 15 8 21c5 5 11 8 18 8s12 -3 17 -8
l136 -136l135 136c5 5 13 8 19 8c7 0 13 -3 20 -10c4 -5 6 -10 6 -17c0 -6 -2 -14 -7 -18z" />
    </font>
</defs>
</svg>
